<?xml version="1.0" encoding="UTF-8" standalone="no"?>
<!DOCTYPE svg PUBLIC "-//W3C//DTD SVG 1.1//EN"
 "http://www.w3.org/Graphics/SVG/1.1/DTD/svg11.dtd">
<!-- Generated by graphviz version 2.36.0 (20140111.2315)
 -->
<!-- Title: controllers_diagram Pages: 1 -->
<svg width="3239pt" height="2458pt"
 viewBox="0.00 0.00 3239.08 2458.00" xmlns="http://www.w3.org/2000/svg" xmlns:xlink="http://www.w3.org/1999/xlink">
<g id="graph0" class="graph" transform="scale(1 1) rotate(0) translate(4 2454)">
<title>controllers_diagram</title>
<polygon fill="white" stroke="none" points="-4,4 -4,-2454 3235.08,-2454 3235.08,4 -4,4"/>
<!-- _diagram_info -->
<g id="node1" class="node"><title>_diagram_info</title>
<text text-anchor="start" x="1002" y="-489.6" font-family="Times,serif" font-size="13.00">Controllers diagram</text>
<text text-anchor="start" x="1002" y="-475.6" font-family="Times,serif" font-size="13.00">Date: May 03 2014 &#45; 07:59</text>
<text text-anchor="start" x="1002" y="-461.6" font-family="Times,serif" font-size="13.00">Migration version: 20140427111500</text>
<text text-anchor="start" x="1002" y="-447.6" font-family="Times,serif" font-size="13.00">Generated by RailRoady 1.1.1</text>
<text text-anchor="start" x="1002" y="-433.6" font-family="Times,serif" font-size="13.00">http://railroady.prestonlee.com</text>
</g>
<!-- Contracting::ContractingSiteController -->
<g id="node2" class="node"><title>Contracting::ContractingSiteController</title>
<ellipse fill="none" stroke="black" cx="659.765" cy="-744.532" rx="148.374" ry="18"/>
<text text-anchor="middle" x="659.765" y="-740.832" font-family="Times,serif" font-size="14.00">Contracting::ContractingSiteController</text>
</g>
<!-- Contracting::FrontController -->
<g id="node3" class="node"><title>Contracting::FrontController</title>
<ellipse fill="none" stroke="black" cx="745.125" cy="-188.823" rx="112.38" ry="18"/>
<text text-anchor="middle" x="745.125" y="-185.123" font-family="Times,serif" font-size="14.00">Contracting::FrontController</text>
</g>
<!-- Contracting::ContractingSiteController&#45;&gt;Contracting::FrontController -->
<g id="edge2" class="edge"><title>Contracting::ContractingSiteController&#45;&gt;Contracting::FrontController</title>
<path fill="none" stroke="black" d="M662.557,-726.358C675.486,-642.183 729.47,-290.739 742.355,-206.858"/>
</g>
<!-- Contracting::ContractsController -->
<g id="node4" class="node"><title>Contracting::ContractsController</title>
<ellipse fill="none" stroke="black" cx="126.739" cy="-925.18" rx="126.978" ry="18"/>
<text text-anchor="middle" x="126.739" y="-921.48" font-family="Times,serif" font-size="14.00">Contracting::ContractsController</text>
</g>
<!-- Contracting::ContractingSiteController&#45;&gt;Contracting::ContractsController -->
<g id="edge3" class="edge"><title>Contracting::ContractingSiteController&#45;&gt;Contracting::ContractsController</title>
<path fill="none" stroke="black" d="M609.619,-761.527C507.64,-796.089 277.188,-874.191 175.977,-908.493"/>
</g>
<!-- Contracting::UsersController -->
<g id="node6" class="node"><title>Contracting::UsersController</title>
<ellipse fill="none" stroke="black" cx="158.156" cy="-264.599" rx="113.18" ry="18"/>
<text text-anchor="middle" x="158.156" y="-260.899" font-family="Times,serif" font-size="14.00">Contracting::UsersController</text>
</g>
<!-- Contracting::ContractingSiteController&#45;&gt;Contracting::UsersController -->
<g id="edge5" class="edge"><title>Contracting::ContractingSiteController&#45;&gt;Contracting::UsersController</title>
<path fill="none" stroke="black" d="M641.017,-726.594C561.871,-650.868 255.547,-357.781 176.732,-282.372"/>
</g>
<!-- Contracting::TonersController -->
<g id="node5" class="node"><title>Contracting::TonersController</title>
<ellipse fill="none" stroke="black" cx="948.144" cy="-1369.83" rx="117.779" ry="18"/>
<text text-anchor="middle" x="948.144" y="-1366.13" font-family="Times,serif" font-size="14.00">Contracting::TonersController</text>
</g>
<!-- BillingAddressesController -->
<g id="node7" class="node"><title>BillingAddressesController</title>
<ellipse fill="none" stroke="black" cx="1220.01" cy="-907.067" rx="107.482" ry="18"/>
<text text-anchor="middle" x="1220.01" y="-903.367" font-family="Times,serif" font-size="14.00">BillingAddressesController</text>
</g>
<!-- Sales::ConversationsController -->
<g id="node8" class="node"><title>Sales::ConversationsController</title>
<ellipse fill="none" stroke="black" cx="1866.93" cy="-591.567" rx="120.479" ry="18"/>
<text text-anchor="middle" x="1866.93" y="-587.867" font-family="Times,serif" font-size="14.00">Sales::ConversationsController</text>
</g>
<!-- Sales::ProductsController -->
<g id="node9" class="node"><title>Sales::ProductsController</title>
<ellipse fill="none" stroke="black" cx="3088.82" cy="-216.539" rx="100.983" ry="18"/>
<text text-anchor="middle" x="3088.82" y="-212.839" font-family="Times,serif" font-size="14.00">Sales::ProductsController</text>
</g>
<!-- Sales::SalesSiteController -->
<g id="node10" class="node"><title>Sales::SalesSiteController</title>
<ellipse fill="none" stroke="black" cx="1945.92" cy="-870.459" rx="102.882" ry="18"/>
<text text-anchor="middle" x="1945.92" y="-866.759" font-family="Times,serif" font-size="14.00">Sales::SalesSiteController</text>
</g>
<!-- Sales::SalesSiteController&#45;&gt;Sales::ConversationsController -->
<g id="edge7" class="edge"><title>Sales::SalesSiteController&#45;&gt;Sales::ConversationsController</title>
<path fill="none" stroke="black" d="M1940.74,-852.16C1926.39,-801.505 1886.28,-659.87 1872.03,-609.571"/>
</g>
<!-- Sales::SalesSiteController&#45;&gt;Sales::ProductsController -->
<g id="edge8" class="edge"><title>Sales::SalesSiteController&#45;&gt;Sales::ProductsController</title>
<path fill="none" stroke="black" d="M1976.19,-853.136C2137.79,-760.68 2897.34,-326.098 3058.66,-233.798"/>
</g>
<!-- Sales::FrontController -->
<g id="node11" class="node"><title>Sales::FrontController</title>
<ellipse fill="none" stroke="black" cx="2078.07" cy="-161.822" rx="89.0842" ry="18"/>
<text text-anchor="middle" x="2078.07" y="-158.122" font-family="Times,serif" font-size="14.00">Sales::FrontController</text>
</g>
<!-- Sales::SalesSiteController&#45;&gt;Sales::FrontController -->
<g id="edge10" class="edge"><title>Sales::SalesSiteController&#45;&gt;Sales::FrontController</title>
<path fill="none" stroke="black" d="M1949.32,-852.23C1967.82,-753.01 2056.25,-278.846 2074.69,-179.931"/>
</g>
<!-- Sales::LinksController -->
<g id="node12" class="node"><title>Sales::LinksController</title>
<ellipse fill="none" stroke="black" cx="1759.19" cy="-160" rx="90.1842" ry="18"/>
<text text-anchor="middle" x="1759.19" y="-156.3" font-family="Times,serif" font-size="14.00">Sales::LinksController</text>
</g>
<!-- Sales::SalesSiteController&#45;&gt;Sales::LinksController -->
<g id="edge11" class="edge"><title>Sales::SalesSiteController&#45;&gt;Sales::LinksController</title>
<path fill="none" stroke="black" d="M1952.69,-852.494C1968.53,-808.151 2005.44,-689.967 1988.77,-591.745 1958.59,-413.887 1820.32,-233.816 1774.21,-177.755"/>
</g>
<!-- Sales::OffersController -->
<g id="node13" class="node"><title>Sales::OffersController</title>
<ellipse fill="none" stroke="black" cx="1463.06" cy="-162.856" rx="92.8835" ry="18"/>
<text text-anchor="middle" x="1463.06" y="-159.156" font-family="Times,serif" font-size="14.00">Sales::OffersController</text>
</g>
<!-- Sales::SalesSiteController&#45;&gt;Sales::OffersController -->
<g id="edge12" class="edge"><title>Sales::SalesSiteController&#45;&gt;Sales::OffersController</title>
<path fill="none" stroke="black" d="M1932.49,-852.361C1899.82,-808.194 1813.81,-691.195 1745.1,-591.389 1637.02,-434.395 1512.55,-240.42 1474.62,-180.998"/>
</g>
<!-- Sales::FeedbacksController -->
<g id="node14" class="node"><title>Sales::FeedbacksController</title>
<ellipse fill="none" stroke="black" cx="3121.54" cy="-775.08" rx="107.482" ry="18"/>
<text text-anchor="middle" x="3121.54" y="-771.38" font-family="Times,serif" font-size="14.00">Sales::FeedbacksController</text>
</g>
<!-- Sales::SalesSiteController&#45;&gt;Sales::FeedbacksController -->
<g id="edge13" class="edge"><title>Sales::SalesSiteController&#45;&gt;Sales::FeedbacksController</title>
<path fill="none" stroke="black" d="M2039.15,-862.895C2257.88,-845.149 2802.25,-800.985 3024.6,-782.945"/>
</g>
<!-- Sales::UsersController -->
<g id="node15" class="node"><title>Sales::UsersController</title>
<ellipse fill="none" stroke="black" cx="3124.02" cy="-1206.98" rx="90.1842" ry="18"/>
<text text-anchor="middle" x="3124.02" y="-1203.28" font-family="Times,serif" font-size="14.00">Sales::UsersController</text>
</g>
<!-- Sales::SalesSiteController&#45;&gt;Sales::UsersController -->
<g id="edge14" class="edge"><title>Sales::SalesSiteController&#45;&gt;Sales::UsersController</title>
<path fill="none" stroke="black" d="M1994.76,-886.313C2094.52,-918.53 2329.08,-993.402 2527.84,-1050.21 2724.9,-1106.52 2960.74,-1166.31 3067.08,-1192.86"/>
</g>
<!-- Sales::SuggestionsController -->
<g id="node16" class="node"><title>Sales::SuggestionsController</title>
<ellipse fill="none" stroke="black" cx="2550.81" cy="-666.246" rx="112.38" ry="18"/>
<text text-anchor="middle" x="2550.81" y="-662.546" font-family="Times,serif" font-size="14.00">Sales::SuggestionsController</text>
</g>
<!-- Sales::SalesSiteController&#45;&gt;Sales::SuggestionsController -->
<g id="edge15" class="edge"><title>Sales::SalesSiteController&#45;&gt;Sales::SuggestionsController</title>
<path fill="none" stroke="black" d="M1993.38,-854.434C2106.04,-816.401 2388.61,-721.003 2502.31,-682.621"/>
</g>
<!-- Sales::OfferitemsController -->
<g id="node17" class="node"><title>Sales::OfferitemsController</title>
<ellipse fill="none" stroke="black" cx="2171.67" cy="-611.061" rx="108.581" ry="18"/>
<text text-anchor="middle" x="2171.67" y="-607.361" font-family="Times,serif" font-size="14.00">Sales::OfferitemsController</text>
</g>
<!-- Sales::SalesSiteController&#45;&gt;Sales::OfferitemsController -->
<g id="edge16" class="edge"><title>Sales::SalesSiteController&#45;&gt;Sales::OfferitemsController</title>
<path fill="none" stroke="black" d="M1961.44,-852.629C2002.68,-805.241 2114.68,-676.546 2156.05,-629.016"/>
</g>
<!-- Sales::MessagesController -->
<g id="node18" class="node"><title>Sales::MessagesController</title>
<ellipse fill="none" stroke="black" cx="2478.03" cy="-175.017" rx="104.782" ry="18"/>
<text text-anchor="middle" x="2478.03" y="-171.317" font-family="Times,serif" font-size="14.00">Sales::MessagesController</text>
</g>
<!-- Sales::SalesSiteController&#45;&gt;Sales::MessagesController -->
<g id="edge17" class="edge"><title>Sales::SalesSiteController&#45;&gt;Sales::MessagesController</title>
<path fill="none" stroke="black" d="M1951.56,-852.385C1965.74,-808.552 2005.75,-694.081 2061.54,-610.924 2185.15,-426.646 2389.65,-248.637 2456.3,-192.89"/>
</g>
<!-- Sales::DownloadsController -->
<g id="node19" class="node"><title>Sales::DownloadsController</title>
<ellipse fill="none" stroke="black" cx="1143.98" cy="-169.128" rx="110.48" ry="18"/>
<text text-anchor="middle" x="1143.98" y="-165.428" font-family="Times,serif" font-size="14.00">Sales::DownloadsController</text>
</g>
<!-- Sales::SalesSiteController&#45;&gt;Sales::DownloadsController -->
<g id="edge18" class="edge"><title>Sales::SalesSiteController&#45;&gt;Sales::DownloadsController</title>
<path fill="none" stroke="black" d="M1929.18,-852.561C1887.73,-808.513 1776.42,-691.901 1676.58,-601.993 1487.55,-431.756 1243.38,-244.398 1167.51,-186.881"/>
</g>
<!-- ConversationsController -->
<g id="node20" class="node"><title>ConversationsController</title>
<ellipse fill="none" stroke="black" cx="958.459" cy="-1027.76" rx="96.6831" ry="18"/>
<text text-anchor="middle" x="958.459" y="-1024.06" font-family="Times,serif" font-size="14.00">ConversationsController</text>
</g>
<!-- ValuesController -->
<g id="node21" class="node"><title>ValuesController</title>
<ellipse fill="none" stroke="black" cx="1235.41" cy="-1159.84" rx="71.4873" ry="18"/>
<text text-anchor="middle" x="1235.41" y="-1156.14" font-family="Times,serif" font-size="14.00">ValuesController</text>
</g>
<!-- AddressesController -->
<g id="node22" class="node"><title>AddressesController</title>
<ellipse fill="none" stroke="black" cx="1326.86" cy="-604.719" rx="83.3857" ry="18"/>
<text text-anchor="middle" x="1326.86" y="-601.019" font-family="Times,serif" font-size="14.00">AddressesController</text>
</g>
<!-- ApplicationController -->
<g id="node23" class="node"><title>ApplicationController</title>
<ellipse fill="none" stroke="black" cx="1524.39" cy="-1106.5" rx="88.2844" ry="18"/>
<text text-anchor="middle" x="1524.39" y="-1102.8" font-family="Times,serif" font-size="14.00">ApplicationController</text>
</g>
<!-- ApplicationController&#45;&gt;Contracting::ContractingSiteController -->
<g id="edge1" class="edge"><title>ApplicationController&#45;&gt;Contracting::ContractingSiteController</title>
<path fill="none" stroke="black" d="M1485.56,-1090.25C1342.87,-1030.51 848.188,-823.414 701.239,-761.894"/>
</g>
<!-- ApplicationController&#45;&gt;Contracting::TonersController -->
<g id="edge4" class="edge"><title>ApplicationController&#45;&gt;Contracting::TonersController</title>
<path fill="none" stroke="black" d="M1488.34,-1122.98C1385.35,-1170.04 1090.47,-1304.79 985.669,-1352.68"/>
</g>
<!-- ApplicationController&#45;&gt;BillingAddressesController -->
<g id="edge6" class="edge"><title>ApplicationController&#45;&gt;BillingAddressesController</title>
<path fill="none" stroke="black" d="M1497.91,-1089.15C1440.35,-1051.44 1304.35,-962.329 1246.65,-924.519"/>
</g>
<!-- ApplicationController&#45;&gt;Sales::SalesSiteController -->
<g id="edge9" class="edge"><title>ApplicationController&#45;&gt;Sales::SalesSiteController</title>
<path fill="none" stroke="black" d="M1554.71,-1089.53C1632.2,-1046.13 1836.91,-931.502 1915.03,-887.757"/>
</g>
<!-- ApplicationController&#45;&gt;ConversationsController -->
<g id="edge19" class="edge"><title>ApplicationController&#45;&gt;ConversationsController</title>
<path fill="none" stroke="black" d="M1451.28,-1096.33C1344.3,-1081.45 1145.98,-1053.85 1036.36,-1038.6"/>
</g>
<!-- ApplicationController&#45;&gt;ValuesController -->
<g id="edge20" class="edge"><title>ApplicationController&#45;&gt;ValuesController</title>
<path fill="none" stroke="black" d="M1458.82,-1118.61C1409.02,-1127.8 1341.2,-1140.31 1293.38,-1149.14"/>
</g>
<!-- ApplicationController&#45;&gt;AddressesController -->
<g id="edge21" class="edge"><title>ApplicationController&#45;&gt;AddressesController</title>
<path fill="none" stroke="black" d="M1510.14,-1088.67C1482.52,-1053.2 1421.59,-970.356 1389.23,-891.036 1349.83,-794.472 1333.54,-668.96 1328.61,-622.784"/>
</g>
<!-- CategoriesController -->
<g id="node24" class="node"><title>CategoriesController</title>
<ellipse fill="none" stroke="black" cx="1775.33" cy="-1099.9" rx="84.485" ry="18"/>
<text text-anchor="middle" x="1775.33" y="-1096.2" font-family="Times,serif" font-size="14.00">CategoriesController</text>
</g>
<!-- ApplicationController&#45;&gt;CategoriesController -->
<g id="edge22" class="edge"><title>ApplicationController&#45;&gt;CategoriesController</title>
<path fill="none" stroke="black" d="M1612.16,-1104.19C1637.88,-1103.52 1665.94,-1102.78 1691.41,-1102.11"/>
</g>
<!-- CountriesController -->
<g id="node25" class="node"><title>CountriesController</title>
<ellipse fill="none" stroke="black" cx="2243.17" cy="-1212.02" rx="81.4863" ry="18"/>
<text text-anchor="middle" x="2243.17" y="-1208.32" font-family="Times,serif" font-size="14.00">CountriesController</text>
</g>
<!-- ApplicationController&#45;&gt;CountriesController -->
<g id="edge23" class="edge"><title>ApplicationController&#45;&gt;CountriesController</title>
<path fill="none" stroke="black" d="M1596.27,-1117.06C1735.38,-1137.48 2039.64,-1182.14 2175.41,-1202.07"/>
</g>
<!-- OrdersController -->
<g id="node26" class="node"><title>OrdersController</title>
<ellipse fill="none" stroke="black" cx="1432.15" cy="-1306.58" rx="70.6878" ry="18"/>
<text text-anchor="middle" x="1432.15" y="-1302.88" font-family="Times,serif" font-size="14.00">OrdersController</text>
</g>
<!-- ApplicationController&#45;&gt;OrdersController -->
<g id="edge24" class="edge"><title>ApplicationController&#45;&gt;OrdersController</title>
<path fill="none" stroke="black" d="M1516.04,-1124.61C1498.48,-1162.7 1457.9,-1250.73 1440.41,-1288.66"/>
</g>
<!-- ProductsController -->
<g id="node27" class="node"><title>ProductsController</title>
<ellipse fill="none" stroke="black" cx="1597.64" cy="-601.857" rx="77.1866" ry="18"/>
<text text-anchor="middle" x="1597.64" y="-598.157" font-family="Times,serif" font-size="14.00">ProductsController</text>
</g>
<!-- ApplicationController&#45;&gt;ProductsController -->
<g id="edge25" class="edge"><title>ApplicationController&#45;&gt;ProductsController</title>
<path fill="none" stroke="black" d="M1527.04,-1088.25C1538.48,-1009.43 1583.56,-698.853 1595,-620.091"/>
</g>
<!-- FrontController -->
<g id="node28" class="node"><title>FrontController</title>
<ellipse fill="none" stroke="black" cx="2575.5" cy="-1036.38" rx="65.7887" ry="18"/>
<text text-anchor="middle" x="2575.5" y="-1032.68" font-family="Times,serif" font-size="14.00">FrontController</text>
</g>
<!-- ApplicationController&#45;&gt;FrontController -->
<g id="edge26" class="edge"><title>ApplicationController&#45;&gt;FrontController</title>
<path fill="none" stroke="black" d="M1600.74,-1097.34C1650.51,-1091.66 1716.91,-1084.65 1775.76,-1080.3 2048.43,-1060.14 2374.03,-1045.04 2510.4,-1039.12"/>
</g>
<!-- LinksController -->
<g id="node29" class="node"><title>LinksController</title>
<ellipse fill="none" stroke="black" cx="1457.77" cy="-891.117" rx="66.8882" ry="18"/>
<text text-anchor="middle" x="1457.77" y="-887.417" font-family="Times,serif" font-size="14.00">LinksController</text>
</g>
<!-- ApplicationController&#45;&gt;LinksController -->
<g id="edge27" class="edge"><title>ApplicationController&#45;&gt;LinksController</title>
<path fill="none" stroke="black" d="M1518.83,-1088.51C1506.29,-1047.97 1475.94,-949.849 1463.37,-909.211"/>
</g>
<!-- OffersController -->
<g id="node30" class="node"><title>OffersController</title>
<ellipse fill="none" stroke="black" cx="1020.37" cy="-646.051" rx="69.5877" ry="18"/>
<text text-anchor="middle" x="1020.37" y="-642.351" font-family="Times,serif" font-size="14.00">OffersController</text>
</g>
<!-- ApplicationController&#45;&gt;OffersController -->
<g id="edge28" class="edge"><title>ApplicationController&#45;&gt;OffersController</title>
<path fill="none" stroke="black" d="M1507.92,-1088.63C1474.92,-1053.05 1397.93,-971.309 1328.85,-907.117 1225.29,-810.881 1093.64,-704.4 1042.27,-663.424"/>
</g>
<!-- WebpagesController -->
<g id="node31" class="node"><title>WebpagesController</title>
<ellipse fill="none" stroke="black" cx="2006.79" cy="-1101.28" rx="83.6854" ry="18"/>
<text text-anchor="middle" x="2006.79" y="-1097.58" font-family="Times,serif" font-size="14.00">WebpagesController</text>
</g>
<!-- ApplicationController&#45;&gt;WebpagesController -->
<g id="edge29" class="edge"><title>ApplicationController&#45;&gt;WebpagesController</title>
<path fill="none" stroke="black" d="M1606.14,-1113.44C1655.07,-1116.91 1718.51,-1120.25 1774.9,-1119.5 1827.6,-1118.8 1886.83,-1114.08 1932.23,-1109.62"/>
</g>
<!-- LineitemsController -->
<g id="node32" class="node"><title>LineitemsController</title>
<ellipse fill="none" stroke="black" cx="1690.65" cy="-1296.05" rx="82.5854" ry="18"/>
<text text-anchor="middle" x="1690.65" y="-1292.35" font-family="Times,serif" font-size="14.00">LineitemsController</text>
</g>
<!-- ApplicationController&#45;&gt;LineitemsController -->
<g id="edge30" class="edge"><title>ApplicationController&#45;&gt;LineitemsController</title>
<path fill="none" stroke="black" d="M1540.03,-1124.34C1571.72,-1160.46 1643.17,-1241.92 1674.93,-1278.12"/>
</g>
<!-- UsersController -->
<g id="node33" class="node"><title>UsersController</title>
<ellipse fill="none" stroke="black" cx="1695.39" cy="-879.587" rx="66.8882" ry="18"/>
<text text-anchor="middle" x="1695.39" y="-875.887" font-family="Times,serif" font-size="14.00">UsersController</text>
</g>
<!-- ApplicationController&#45;&gt;UsersController -->
<g id="edge31" class="edge"><title>ApplicationController&#45;&gt;UsersController</title>
<path fill="none" stroke="black" d="M1537.81,-1088.7C1569.78,-1046.28 1650.13,-939.645 1682.04,-897.31"/>
</g>
<!-- Admin::AdminSiteController -->
<g id="node47" class="node"><title>Admin::AdminSiteController</title>
<ellipse fill="none" stroke="black" cx="1765.17" cy="-1533.15" rx="115.08" ry="18"/>
<text text-anchor="middle" x="1765.17" y="-1529.45" font-family="Times,serif" font-size="14.00">Admin::AdminSiteController</text>
</g>
<!-- ApplicationController&#45;&gt;Admin::AdminSiteController -->
<g id="edge43" class="edge"><title>ApplicationController&#45;&gt;Admin::AdminSiteController</title>
<path fill="none" stroke="black" d="M1530.94,-1124.5C1543.69,-1158.76 1573.48,-1235.34 1606.51,-1295.9 1653.36,-1381.82 1722.36,-1476.38 1751.44,-1515.1"/>
</g>
<!-- OfferitemsController -->
<g id="node62" class="node"><title>OfferitemsController</title>
<ellipse fill="none" stroke="black" cx="2233.21" cy="-925.065" rx="85.2851" ry="18"/>
<text text-anchor="middle" x="2233.21" y="-921.365" font-family="Times,serif" font-size="14.00">OfferitemsController</text>
</g>
<!-- ApplicationController&#45;&gt;OfferitemsController -->
<g id="edge58" class="edge"><title>ApplicationController&#45;&gt;OfferitemsController</title>
<path fill="none" stroke="black" d="M1579.42,-1092.42C1711.81,-1058.53 2046.85,-972.768 2178.71,-939.017"/>
</g>
<!-- MessagesController -->
<g id="node63" class="node"><title>MessagesController</title>
<ellipse fill="none" stroke="black" cx="632.478" cy="-1205.9" rx="81.4863" ry="18"/>
<text text-anchor="middle" x="632.478" y="-1202.2" font-family="Times,serif" font-size="14.00">MessagesController</text>
</g>
<!-- ApplicationController&#45;&gt;MessagesController -->
<g id="edge59" class="edge"><title>ApplicationController&#45;&gt;MessagesController</title>
<path fill="none" stroke="black" d="M1446.8,-1115.15C1276.32,-1134.15 871.083,-1179.31 705.187,-1197.8"/>
</g>
<!-- Ckeditor::AttachmentFilesController -->
<g id="node34" class="node"><title>Ckeditor::AttachmentFilesController</title>
<ellipse fill="none" stroke="black" cx="2555.04" cy="-18" rx="141.075" ry="18"/>
<text text-anchor="middle" x="2555.04" y="-14.3" font-family="Times,serif" font-size="14.00">Ckeditor::AttachmentFilesController</text>
</g>
<!-- Ckeditor::PicturesController -->
<g id="node35" class="node"><title>Ckeditor::PicturesController</title>
<ellipse fill="none" stroke="black" cx="536.49" cy="-2432" rx="110.48" ry="18"/>
<text text-anchor="middle" x="536.49" y="-2428.3" font-family="Times,serif" font-size="14.00">Ckeditor::PicturesController</text>
</g>
<!-- Admin::InventoriesController -->
<g id="node36" class="node"><title>Admin::InventoriesController</title>
<ellipse fill="none" stroke="black" cx="1562.98" cy="-1488.77" rx="116.18" ry="18"/>
<text text-anchor="middle" x="1562.98" y="-1485.07" font-family="Times,serif" font-size="14.00">Admin::InventoriesController</text>
</g>
<!-- Admin::BillingAddressesController -->
<g id="node37" class="node"><title>Admin::BillingAddressesController</title>
<ellipse fill="none" stroke="black" cx="1320.6" cy="-1853.76" rx="137.276" ry="18"/>
<text text-anchor="middle" x="1320.6" y="-1850.06" font-family="Times,serif" font-size="14.00">Admin::BillingAddressesController</text>
</g>
<!-- Admin::ProductrelationsController -->
<g id="node38" class="node"><title>Admin::ProductrelationsController</title>
<ellipse fill="none" stroke="black" cx="2178.54" cy="-1805.22" rx="133.776" ry="18"/>
<text text-anchor="middle" x="2178.54" y="-1801.52" font-family="Times,serif" font-size="14.00">Admin::ProductrelationsController</text>
</g>
<!-- Admin::RecommendationsController -->
<g id="node39" class="node"><title>Admin::RecommendationsController</title>
<ellipse fill="none" stroke="black" cx="1986.36" cy="-1557.85" rx="142.975" ry="18"/>
<text text-anchor="middle" x="1986.36" y="-1554.15" font-family="Times,serif" font-size="14.00">Admin::RecommendationsController</text>
</g>
<!-- Admin::CategorizationsController -->
<g id="node40" class="node"><title>Admin::CategorizationsController</title>
<ellipse fill="none" stroke="black" cx="1590.9" cy="-1769" rx="131.877" ry="18"/>
<text text-anchor="middle" x="1590.9" y="-1765.3" font-family="Times,serif" font-size="14.00">Admin::CategorizationsController</text>
</g>
<!-- Admin::AddressesController -->
<g id="node41" class="node"><title>Admin::AddressesController</title>
<ellipse fill="none" stroke="black" cx="2161.85" cy="-2244.03" rx="112.38" ry="18"/>
<text text-anchor="middle" x="2161.85" y="-2240.33" font-family="Times,serif" font-size="14.00">Admin::AddressesController</text>
</g>
<!-- Admin::FeaturesController -->
<g id="node42" class="node"><title>Admin::FeaturesController</title>
<ellipse fill="none" stroke="black" cx="724.125" cy="-2227.65" rx="106.681" ry="18"/>
<text text-anchor="middle" x="724.125" y="-2223.95" font-family="Times,serif" font-size="14.00">Admin::FeaturesController</text>
</g>
<!-- Admin::SupplyrelationsController -->
<g id="node43" class="node"><title>Admin::SupplyrelationsController</title>
<ellipse fill="none" stroke="black" cx="152.444" cy="-2155.39" rx="131.877" ry="18"/>
<text text-anchor="middle" x="152.444" y="-2151.69" font-family="Times,serif" font-size="14.00">Admin::SupplyrelationsController</text>
</g>
<!-- Admin::CategoriesController -->
<g id="node44" class="node"><title>Admin::CategoriesController</title>
<ellipse fill="none" stroke="black" cx="1412.82" cy="-2314.96" rx="114.28" ry="18"/>
<text text-anchor="middle" x="1412.82" y="-2311.26" font-family="Times,serif" font-size="14.00">Admin::CategoriesController</text>
</g>
<!-- Admin::PageContentElementAssignmentsController -->
<g id="node45" class="node"><title>Admin::PageContentElementAssignmentsController</title>
<ellipse fill="none" stroke="black" cx="1028.61" cy="-1738.44" rx="196.865" ry="18"/>
<text text-anchor="middle" x="1028.61" y="-1734.74" font-family="Times,serif" font-size="14.00">Admin::PageContentElementAssignmentsController</text>
</g>
<!-- Admin::CountriesController -->
<g id="node46" class="node"><title>Admin::CountriesController</title>
<ellipse fill="none" stroke="black" cx="1355.88" cy="-1575.49" rx="110.48" ry="18"/>
<text text-anchor="middle" x="1355.88" y="-1571.79" font-family="Times,serif" font-size="14.00">Admin::CountriesController</text>
</g>
<!-- Admin::AdminSiteController&#45;&gt;Admin::InventoriesController -->
<g id="edge32" class="edge"><title>Admin::AdminSiteController&#45;&gt;Admin::InventoriesController</title>
<path fill="none" stroke="black" d="M1698.13,-1518.43C1676.29,-1513.64 1652.04,-1508.32 1630.19,-1503.52"/>
</g>
<!-- Admin::AdminSiteController&#45;&gt;Admin::BillingAddressesController -->
<g id="edge33" class="edge"><title>Admin::AdminSiteController&#45;&gt;Admin::BillingAddressesController</title>
<path fill="none" stroke="black" d="M1740.64,-1550.84C1663,-1606.83 1423.24,-1779.74 1345.33,-1835.92"/>
</g>
<!-- Admin::AdminSiteController&#45;&gt;Admin::ProductrelationsController -->
<g id="edge34" class="edge"><title>Admin::AdminSiteController&#45;&gt;Admin::ProductrelationsController</title>
<path fill="none" stroke="black" d="M1791.98,-1550.79C1866.67,-1599.95 2076.58,-1738.11 2151.52,-1787.44"/>
</g>
<!-- Admin::AdminSiteController&#45;&gt;Admin::RecommendationsController -->
<g id="edge35" class="edge"><title>Admin::AdminSiteController&#45;&gt;Admin::RecommendationsController</title>
<path fill="none" stroke="black" d="M1858.98,-1543.63C1865.69,-1544.37 1872.48,-1545.13 1879.26,-1545.89"/>
</g>
<!-- Admin::AdminSiteController&#45;&gt;Admin::CategorizationsController -->
<g id="edge36" class="edge"><title>Admin::AdminSiteController&#45;&gt;Admin::CategorizationsController</title>
<path fill="none" stroke="black" d="M1751.79,-1551.26C1719.35,-1595.17 1636.82,-1706.86 1604.33,-1750.82"/>
</g>
<!-- Admin::AdminSiteController&#45;&gt;Admin::AddressesController -->
<g id="edge37" class="edge"><title>Admin::AdminSiteController&#45;&gt;Admin::AddressesController</title>
<path fill="none" stroke="black" d="M1780.22,-1551.23C1817.53,-1596.62 1915.96,-1719.91 1980.95,-1833.7 2063.39,-1978.03 2134.14,-2167.02 2155.36,-2225.79"/>
</g>
<!-- Admin::AdminSiteController&#45;&gt;Admin::FeaturesController -->
<g id="edge38" class="edge"><title>Admin::AdminSiteController&#45;&gt;Admin::FeaturesController</title>
<path fill="none" stroke="black" d="M1728.67,-1550.3C1634.76,-1595.02 1378.44,-1720.95 1181.86,-1853.64 1000.69,-1975.93 804.118,-2153.64 743.194,-2209.89"/>
</g>
<!-- Admin::AdminSiteController&#45;&gt;Admin::SupplyrelationsController -->
<g id="edge39" class="edge"><title>Admin::AdminSiteController&#45;&gt;Admin::SupplyrelationsController</title>
<path fill="none" stroke="black" d="M1721.62,-1549.95C1492.43,-1638.38 427.936,-2049.09 196.803,-2138.27"/>
</g>
<!-- Admin::AdminSiteController&#45;&gt;Admin::CategoriesController -->
<g id="edge40" class="edge"><title>Admin::AdminSiteController&#45;&gt;Admin::CategoriesController</title>
<path fill="none" stroke="black" d="M1764.64,-1551.31C1762.89,-1591.85 1755.49,-1692.17 1724.44,-1769.04 1659.33,-1930.24 1587.06,-1939.54 1504.61,-2092.6 1465.49,-2165.21 1432.1,-2258.13 1418.88,-2296.81"/>
</g>
<!-- Admin::AdminSiteController&#45;&gt;Admin::PageContentElementAssignmentsController -->
<g id="edge41" class="edge"><title>Admin::AdminSiteController&#45;&gt;Admin::PageContentElementAssignmentsController</title>
<path fill="none" stroke="black" d="M1708.6,-1548.92C1573.01,-1586.71 1230.37,-1682.21 1090.01,-1721.33"/>
</g>
<!-- Admin::AdminSiteController&#45;&gt;Admin::CountriesController -->
<g id="edge42" class="edge"><title>Admin::AdminSiteController&#45;&gt;Admin::CountriesController</title>
<path fill="none" stroke="black" d="M1668.95,-1543.1C1602.67,-1549.96 1515.04,-1559.02 1449.36,-1565.82"/>
</g>
<!-- Admin::PricesController -->
<g id="node48" class="node"><title>Admin::PricesController</title>
<ellipse fill="none" stroke="black" cx="2550.06" cy="-1741.87" rx="98.2828" ry="18"/>
<text text-anchor="middle" x="2550.06" y="-1738.17" font-family="Times,serif" font-size="14.00">Admin::PricesController</text>
</g>
<!-- Admin::AdminSiteController&#45;&gt;Admin::PricesController -->
<g id="edge44" class="edge"><title>Admin::AdminSiteController&#45;&gt;Admin::PricesController</title>
<path fill="none" stroke="black" d="M1813.25,-1549.51C1834.8,-1556.64 1860.59,-1564.91 1884.04,-1571.7 2105.28,-1635.77 2371.48,-1699.95 2489.1,-1727.66"/>
</g>
<!-- Admin::OrdersController -->
<g id="node49" class="node"><title>Admin::OrdersController</title>
<ellipse fill="none" stroke="black" cx="663.534" cy="-1672.02" rx="100.983" ry="18"/>
<text text-anchor="middle" x="663.534" y="-1668.32" font-family="Times,serif" font-size="14.00">Admin::OrdersController</text>
</g>
<!-- Admin::AdminSiteController&#45;&gt;Admin::OrdersController -->
<g id="edge45" class="edge"><title>Admin::AdminSiteController&#45;&gt;Admin::OrdersController</title>
<path fill="none" stroke="black" d="M1691.62,-1547.02C1624.85,-1559.29 1523.59,-1577.09 1435.04,-1589.36 1189.69,-1623.36 898.772,-1651.17 754.321,-1664.13"/>
</g>
<!-- Admin::ProductsController -->
<g id="node50" class="node"><title>Admin::ProductsController</title>
<ellipse fill="none" stroke="black" cx="2578.53" cy="-1374.37" rx="107.482" ry="18"/>
<text text-anchor="middle" x="2578.53" y="-1370.67" font-family="Times,serif" font-size="14.00">Admin::ProductsController</text>
</g>
<!-- Admin::AdminSiteController&#45;&gt;Admin::ProductsController -->
<g id="edge46" class="edge"><title>Admin::AdminSiteController&#45;&gt;Admin::ProductsController</title>
<path fill="none" stroke="black" d="M1837.35,-1519.06C1992.38,-1488.79 2355.49,-1417.91 2508.54,-1388.03"/>
</g>
<!-- Admin::FrontController -->
<g id="node51" class="node"><title>Admin::FrontController</title>
<ellipse fill="none" stroke="black" cx="2236.67" cy="-1481.09" rx="95.5831" ry="18"/>
<text text-anchor="middle" x="2236.67" y="-1477.39" font-family="Times,serif" font-size="14.00">Admin::FrontController</text>
</g>
<!-- Admin::AdminSiteController&#45;&gt;Admin::FrontController -->
<g id="edge47" class="edge"><title>Admin::AdminSiteController&#45;&gt;Admin::FrontController</title>
<path fill="none" stroke="black" d="M1859.17,-1522.77C1945.28,-1513.26 2071.5,-1499.32 2153.88,-1490.23"/>
</g>
<!-- Admin::ConstantsController -->
<g id="node52" class="node"><title>Admin::ConstantsController</title>
<ellipse fill="none" stroke="black" cx="3104.88" cy="-2198.55" rx="111.28" ry="18"/>
<text text-anchor="middle" x="3104.88" y="-2194.85" font-family="Times,serif" font-size="14.00">Admin::ConstantsController</text>
</g>
<!-- Admin::AdminSiteController&#45;&gt;Admin::ConstantsController -->
<g id="edge48" class="edge"><title>Admin::AdminSiteController&#45;&gt;Admin::ConstantsController</title>
<path fill="none" stroke="black" d="M1799.86,-1550.33C1886.55,-1593.27 2119.7,-1708.79 2314.02,-1805.28 2606.56,-1950.54 2959.79,-2126.33 3070.2,-2181.29"/>
</g>
<!-- Admin::WebpagesController -->
<g id="node53" class="node"><title>Admin::WebpagesController</title>
<ellipse fill="none" stroke="black" cx="3117.34" cy="-1636.38" rx="113.98" ry="18"/>
<text text-anchor="middle" x="3117.34" y="-1632.68" font-family="Times,serif" font-size="14.00">Admin::WebpagesController</text>
</g>
<!-- Admin::AdminSiteController&#45;&gt;Admin::WebpagesController -->
<g id="edge49" class="edge"><title>Admin::AdminSiteController&#45;&gt;Admin::WebpagesController</title>
<path fill="none" stroke="black" d="M1879.77,-1535.07C1914.09,-1535.84 1951.81,-1536.88 1986.47,-1538.25 2031.93,-1540.06 2043.3,-1540.69 2088.68,-1544 2432.25,-1569.09 2839.51,-1608.55 3021.35,-1626.68"/>
</g>
<!-- Admin::LineitemsController -->
<g id="node54" class="node"><title>Admin::LineitemsController</title>
<ellipse fill="none" stroke="black" cx="129.195" cy="-1493.9" rx="112.38" ry="18"/>
<text text-anchor="middle" x="129.195" y="-1490.2" font-family="Times,serif" font-size="14.00">Admin::LineitemsController</text>
</g>
<!-- Admin::AdminSiteController&#45;&gt;Admin::LineitemsController -->
<g id="edge50" class="edge"><title>Admin::AdminSiteController&#45;&gt;Admin::LineitemsController</title>
<path fill="none" stroke="black" d="M1651.43,-1530.42C1350.9,-1523.21 538.38,-1503.72 240.561,-1496.57"/>
</g>
<!-- Admin::UsersController -->
<g id="node55" class="node"><title>Admin::UsersController</title>
<ellipse fill="none" stroke="black" cx="2525.74" cy="-2240.69" rx="96.6831" ry="18"/>
<text text-anchor="middle" x="2525.74" y="-2236.99" font-family="Times,serif" font-size="14.00">Admin::UsersController</text>
</g>
<!-- Admin::AdminSiteController&#45;&gt;Admin::UsersController -->
<g id="edge51" class="edge"><title>Admin::AdminSiteController&#45;&gt;Admin::UsersController</title>
<path fill="none" stroke="black" d="M1783.13,-1551.23C1826.97,-1595.26 1943.19,-1711.3 2043.05,-1805.15 2219.06,-1970.58 2438.1,-2163.78 2505.24,-2222.73"/>
</g>
<!-- Admin::PropertyGroupsController -->
<g id="node56" class="node"><title>Admin::PropertyGroupsController</title>
<ellipse fill="none" stroke="black" cx="1854.83" cy="-2309" rx="132.677" ry="18"/>
<text text-anchor="middle" x="1854.83" y="-2305.3" font-family="Times,serif" font-size="14.00">Admin::PropertyGroupsController</text>
</g>
<!-- Admin::AdminSiteController&#45;&gt;Admin::PropertyGroupsController -->
<g id="edge52" class="edge"><title>Admin::AdminSiteController&#45;&gt;Admin::PropertyGroupsController</title>
<path fill="none" stroke="black" d="M1762.82,-1551.47C1757.13,-1598.45 1743.77,-1726.96 1752.87,-1833.59 1768.35,-2014.84 1830.02,-2227.83 1849.15,-2290.68"/>
</g>
<!-- Admin::ShippingCostsController -->
<g id="node57" class="node"><title>Admin::ShippingCostsController</title>
<ellipse fill="none" stroke="black" cx="1634.25" cy="-2092.74" rx="128.077" ry="18"/>
<text text-anchor="middle" x="1634.25" y="-2089.04" font-family="Times,serif" font-size="14.00">Admin::ShippingCostsController</text>
</g>
<!-- Admin::AdminSiteController&#45;&gt;Admin::ShippingCostsController -->
<g id="edge53" class="edge"><title>Admin::AdminSiteController&#45;&gt;Admin::ShippingCostsController</title>
<path fill="none" stroke="black" d="M1762.67,-1551.32C1757.07,-1591.06 1742.55,-1688.56 1724.44,-1769.04 1697.93,-1886.86 1655.32,-2025.78 1639.98,-2074.65"/>
</g>
<!-- Admin::PropertiesController -->
<g id="node58" class="node"><title>Admin::PropertiesController</title>
<ellipse fill="none" stroke="black" cx="1866.91" cy="-1833.64" rx="112.38" ry="18"/>
<text text-anchor="middle" x="1866.91" y="-1829.94" font-family="Times,serif" font-size="14.00">Admin::PropertiesController</text>
</g>
<!-- Admin::AdminSiteController&#45;&gt;Admin::PropertiesController -->
<g id="edge54" class="edge"><title>Admin::AdminSiteController&#45;&gt;Admin::PropertiesController</title>
<path fill="none" stroke="black" d="M1771.39,-1551.49C1789.59,-1605.27 1842.68,-1762.07 1860.78,-1815.54"/>
</g>
<!-- Admin::PageTemplatesController -->
<g id="node59" class="node"><title>Admin::PageTemplatesController</title>
<ellipse fill="none" stroke="black" cx="1948.49" cy="-1319.9" rx="130.777" ry="18"/>
<text text-anchor="middle" x="1948.49" y="-1316.2" font-family="Times,serif" font-size="14.00">Admin::PageTemplatesController</text>
</g>
<!-- Admin::AdminSiteController&#45;&gt;Admin::PageTemplatesController -->
<g id="edge55" class="edge"><title>Admin::AdminSiteController&#45;&gt;Admin::PageTemplatesController</title>
<path fill="none" stroke="black" d="M1780.8,-1514.97C1815.44,-1474.68 1898.3,-1378.28 1932.9,-1338.04"/>
</g>
<!-- Admin::ContentElementsController -->
<g id="node60" class="node"><title>Admin::ContentElementsController</title>
<ellipse fill="none" stroke="black" cx="1195.46" cy="-1420.68" rx="137.576" ry="18"/>
<text text-anchor="middle" x="1195.46" y="-1416.98" font-family="Times,serif" font-size="14.00">Admin::ContentElementsController</text>
</g>
<!-- Admin::AdminSiteController&#45;&gt;Admin::ContentElementsController -->
<g id="edge56" class="edge"><title>Admin::AdminSiteController&#45;&gt;Admin::ContentElementsController</title>
<path fill="none" stroke="black" d="M1658.85,-1526.21C1604.68,-1521.56 1537.98,-1514.11 1479.02,-1502.54 1395.18,-1486.08 1300.25,-1456.33 1244.25,-1437.59"/>
</g>
<!-- Admin::GtcsController -->
<g id="node61" class="node"><title>Admin::GtcsController</title>
<ellipse fill="none" stroke="black" cx="1091.95" cy="-2232.32" rx="92.8835" ry="18"/>
<text text-anchor="middle" x="1091.95" y="-2228.62" font-family="Times,serif" font-size="14.00">Admin::GtcsController</text>
</g>
<!-- Admin::AdminSiteController&#45;&gt;Admin::GtcsController -->
<g id="edge57" class="edge"><title>Admin::AdminSiteController&#45;&gt;Admin::GtcsController</title>
<path fill="none" stroke="black" d="M1723.42,-1549.94C1652.8,-1580.96 1512.14,-1654.68 1457.36,-1768.96 1441.05,-1803 1473.12,-1818.73 1459.33,-1853.88 1390.3,-2029.92 1193.59,-2168.2 1120.1,-2215.09"/>
</g>
</g>
</svg>
