<?xml version="1.0" encoding="UTF-8" standalone="no"?>
<!DOCTYPE svg PUBLIC "-//W3C//DTD SVG 1.1//EN"
 "http://www.w3.org/Graphics/SVG/1.1/DTD/svg11.dtd">
<!-- Generated by graphviz version 2.36.0 (20140111.2315)
 -->
<!-- Title: models_diagram Pages: 1 -->
<svg width="3430pt" height="680pt"
 viewBox="0.00 0.00 3430.00 680.00" xmlns="http://www.w3.org/2000/svg" xmlns:xlink="http://www.w3.org/1999/xlink">
<g id="graph0" class="graph" transform="scale(1 1) rotate(0) translate(4 676)">
<title>models_diagram</title>
<polygon fill="white" stroke="none" points="-4,4 -4,-676 3426,-676 3426,4 -4,4"/>
<!-- _diagram_info -->
<g id="node1" class="node"><title>_diagram_info</title>
<text text-anchor="start" x="1071" y="-657.6" font-family="Times,serif" font-size="13.00">Models diagram</text>
<text text-anchor="start" x="1071" y="-643.6" font-family="Times,serif" font-size="13.00">Date: May 03 2014 &#45; 07:59</text>
<text text-anchor="start" x="1071" y="-629.6" font-family="Times,serif" font-size="13.00">Migration version: 20140427111500</text>
<text text-anchor="start" x="1071" y="-615.6" font-family="Times,serif" font-size="13.00">Generated by RailRoady 1.1.1</text>
<text text-anchor="start" x="1071" y="-601.6" font-family="Times,serif" font-size="13.00">http://railroady.prestonlee.com</text>
</g>
<!-- Suggestion -->
<g id="node2" class="node"><title>Suggestion</title>
<ellipse fill="none" stroke="black" cx="364" cy="-322" rx="50.0684" ry="18"/>
<text text-anchor="middle" x="364" y="-318.3" font-family="Times,serif" font-size="14.00">Suggestion</text>
</g>
<!-- PaperTrail::Version -->
<g id="node42" class="node"><title>PaperTrail::Version</title>
<ellipse fill="none" stroke="black" cx="1355" cy="-18" rx="80.389" ry="18"/>
<text text-anchor="middle" x="1355" y="-14.3" font-family="Times,serif" font-size="14.00">PaperTrail::Version</text>
</g>
<!-- Suggestion&#45;&gt;PaperTrail::Version -->
<g id="edge1" class="edge"><title>Suggestion&#45;&gt;PaperTrail::Version</title>
<path fill="none" stroke="#08ea2f" d="M354.879,-296.306C335.872,-240.13 300.016,-103.793 379,-54 416.077,-30.6259 1030.15,-22.1759 1264.82,-19.7913"/>
<ellipse fill="none" stroke="#08ea2f" cx="356.235" cy="-300.214" rx="4.00001" ry="4.00001"/>
<polygon fill="#08ea2f" stroke="#08ea2f" points="1265.03,-19.7893 1275.07,-24.1887 1270.03,-19.7391 1275.03,-19.689 1275.03,-19.689 1275.03,-19.689 1270.03,-19.7391 1274.98,-15.1892 1265.03,-19.7893 1265.03,-19.7893"/>
<text text-anchor="middle" x="355" y="-156.3" font-family="Times,serif" font-size="14.00">versions</text>
</g>
<!-- Gtc -->
<g id="node3" class="node"><title>Gtc</title>
<ellipse fill="none" stroke="black" cx="27" cy="-484" rx="27" ry="18"/>
<text text-anchor="middle" x="27" y="-480.3" font-family="Times,serif" font-size="14.00">Gtc</text>
</g>
<!-- Gtc&#45;&gt;PaperTrail::Version -->
<g id="edge3" class="edge"><title>Gtc&#45;&gt;PaperTrail::Version</title>
<path fill="none" stroke="#f806ba" d="M20.6774,-457.942C15.8426,-436.577 10,-404.971 10,-377 10,-377 10,-377 10,-105 10,-67.9295 41.0842,-66.4542 76,-54 131.768,-34.1081 982.046,-23.0706 1264.54,-19.9383"/>
<ellipse fill="none" stroke="#f806ba" cx="21.6223" cy="-461.982" rx="4.00001" ry="4.00001"/>
<polygon fill="#f806ba" stroke="#f806ba" points="1264.75,-19.9361 1274.8,-24.3255 1269.75,-19.881 1274.75,-19.8258 1274.75,-19.8258 1274.75,-19.8258 1269.75,-19.881 1274.7,-15.3261 1264.75,-19.9361 1264.75,-19.9361"/>
<text text-anchor="middle" x="33" y="-264.3" font-family="Times,serif" font-size="14.00">versions</text>
</g>
<!-- PropertyGroup -->
<g id="node4" class="node"><title>PropertyGroup</title>
<ellipse fill="none" stroke="black" cx="1438" cy="-538" rx="63.5411" ry="18"/>
<text text-anchor="middle" x="1438" y="-534.3" font-family="Times,serif" font-size="14.00">PropertyGroup</text>
</g>
<!-- Property -->
<g id="node26" class="node"><title>Property</title>
<ellipse fill="none" stroke="black" cx="1491" cy="-430" rx="40.4202" ry="18"/>
<text text-anchor="middle" x="1491" y="-426.3" font-family="Times,serif" font-size="14.00">Property</text>
</g>
<!-- PropertyGroup&#45;&gt;Property -->
<g id="edge7" class="edge"><title>PropertyGroup&#45;&gt;Property</title>
<path fill="none" stroke="#60ee18" d="M1451.06,-510.887C1459.31,-494.371 1469.94,-473.118 1478.16,-456.685"/>
<polygon fill="#60ee18" stroke="#60ee18" points="1450.99,-511.025 1442.49,-517.957 1448.75,-515.497 1446.52,-519.969 1446.52,-519.969 1446.52,-519.969 1448.75,-515.497 1450.54,-521.982 1450.99,-511.025 1450.99,-511.025"/>
<polygon fill="#60ee18" stroke="#60ee18" points="1478.21,-456.583 1486.71,-449.651 1480.44,-452.111 1482.68,-447.639 1482.68,-447.639 1482.68,-447.639 1480.44,-452.111 1478.66,-445.627 1478.21,-456.583 1478.21,-456.583"/>
</g>
<!-- Product -->
<g id="node29" class="node"><title>Product</title>
<ellipse fill="none" stroke="black" cx="1584" cy="-322" rx="38.0212" ry="18"/>
<text text-anchor="middle" x="1584" y="-318.3" font-family="Times,serif" font-size="14.00">Product</text>
</g>
<!-- PropertyGroup&#45;&gt;Product -->
<g id="edge6" class="edge"><title>PropertyGroup&#45;&gt;Product</title>
<path fill="none" stroke="#99e606" d="M1470.91,-515.28C1493.17,-499.086 1521.73,-475.144 1540,-448 1560.52,-417.501 1572.57,-376.376 1578.72,-349.772"/>
<polygon fill="#99e606" stroke="#99e606" points="1470.87,-515.306 1460.12,-517.43 1466.8,-518.202 1462.72,-521.098 1462.72,-521.098 1462.72,-521.098 1466.8,-518.202 1465.33,-524.767 1470.87,-515.306 1470.87,-515.306"/>
<polygon fill="#99e606" stroke="#99e606" points="1578.72,-349.771 1585.26,-340.97 1579.8,-344.888 1580.87,-340.004 1580.87,-340.004 1580.87,-340.004 1579.8,-344.888 1576.47,-339.039 1578.72,-349.771 1578.72,-349.771"/>
</g>
<!-- Value -->
<g id="node39" class="node"><title>Value</title>
<ellipse fill="none" stroke="black" cx="1407" cy="-214" rx="31.2735" ry="18"/>
<text text-anchor="middle" x="1407" y="-210.3" font-family="Times,serif" font-size="14.00">Value</text>
</g>
<!-- PropertyGroup&#45;&gt;Value -->
<g id="edge8" class="edge"><title>PropertyGroup&#45;&gt;Value</title>
<path fill="none" stroke="#70efac" d="M1437.88,-511.648C1437.27,-461.354 1433.96,-345.559 1417,-250 1416.52,-247.293 1415.91,-244.496 1415.24,-241.717"/>
<ellipse fill="none" stroke="#70efac" cx="1437.93" cy="-515.703" rx="4" ry="4"/>
<polygon fill="#70efac" stroke="#70efac" points="1415.2,-241.58 1416.94,-230.752 1413.9,-236.753 1412.59,-231.926 1412.59,-231.926 1412.59,-231.926 1413.9,-236.753 1408.25,-233.099 1415.2,-241.58 1415.2,-241.58"/>
</g>
<!-- PropertyGroup&#45;&gt;PaperTrail::Version -->
<g id="edge5" class="edge"><title>PropertyGroup&#45;&gt;PaperTrail::Version</title>
<path fill="none" stroke="#5c7128" d="M1428.94,-512.274C1413.09,-467.746 1380.71,-370.804 1367,-286 1352.98,-199.308 1353.13,-94.8688 1354.16,-46.3041"/>
<ellipse fill="none" stroke="#5c7128" cx="1430.35" cy="-516.199" rx="4.00001" ry="4.00001"/>
<polygon fill="#5c7128" stroke="#5c7128" points="1354.17,-46.0042 1358.91,-36.1167 1354.29,-41.0057 1354.41,-36.0072 1354.41,-36.0072 1354.41,-36.0072 1354.29,-41.0057 1349.92,-35.8977 1354.17,-46.0042 1354.17,-46.0042"/>
<text text-anchor="middle" x="1390" y="-264.3" font-family="Times,serif" font-size="14.00">versions</text>
</g>
<!-- Address -->
<g id="node5" class="node"><title>Address</title>
<ellipse fill="none" stroke="black" cx="217" cy="-430" rx="39.4691" ry="18"/>
<text text-anchor="middle" x="217" y="-426.3" font-family="Times,serif" font-size="14.00">Address</text>
</g>
<!-- Address&#45;&gt;PaperTrail::Version -->
<g id="edge10" class="edge"><title>Address&#45;&gt;PaperTrail::Version</title>
<path fill="none" stroke="#347cc3" d="M182.197,-413.178C153.307,-398.292 113.308,-373.312 90,-340 71.2731,-313.235 71,-301.666 71,-269 71,-269 71,-269 71,-105 71,-5.49505 190.352,-67.0291 289,-54 476.37,-29.2528 1042.74,-21.7178 1264.54,-19.6804"/>
<ellipse fill="none" stroke="#347cc3" cx="186.082" cy="-415.13" rx="4.00002" ry="4.00002"/>
<polygon fill="#347cc3" stroke="#347cc3" points="1264.84,-19.6778 1274.88,-24.0873 1269.84,-19.6326 1274.83,-19.5875 1274.83,-19.5875 1274.83,-19.5875 1269.84,-19.6326 1274.79,-15.0877 1264.84,-19.6778 1264.84,-19.6778"/>
<text text-anchor="middle" x="94" y="-210.3" font-family="Times,serif" font-size="14.00">versions</text>
</g>
<!-- Offer -->
<g id="node6" class="node"><title>Offer</title>
<ellipse fill="none" stroke="black" cx="667" cy="-322" rx="29.3479" ry="18"/>
<text text-anchor="middle" x="667" y="-318.3" font-family="Times,serif" font-size="14.00">Offer</text>
</g>
<!-- Offeritem -->
<g id="node22" class="node"><title>Offeritem</title>
<ellipse fill="none" stroke="black" cx="737" cy="-214" rx="46.2191" ry="18"/>
<text text-anchor="middle" x="737" y="-210.3" font-family="Times,serif" font-size="14.00">Offeritem</text>
</g>
<!-- Offer&#45;&gt;Offeritem -->
<g id="edge13" class="edge"><title>Offer&#45;&gt;Offeritem</title>
<path fill="none" stroke="#d60082" d="M682.05,-298.21C693.311,-281.158 708.709,-257.841 720.34,-240.228"/>
<ellipse fill="none" stroke="#d60082" cx="679.836" cy="-301.563" rx="4.00002" ry="4.00002"/>
<polygon fill="#d60082" stroke="#d60082" points="720.527,-239.945 729.792,-234.081 723.282,-235.773 726.037,-231.601 726.037,-231.601 726.037,-231.601 723.282,-235.773 722.282,-229.121 720.527,-239.945 720.527,-239.945"/>
</g>
<!-- Offer&#45;&gt;PaperTrail::Version -->
<g id="edge12" class="edge"><title>Offer&#45;&gt;PaperTrail::Version</title>
<path fill="none" stroke="#f3890c" d="M654.433,-297.283C637.441,-261.741 611.98,-193.353 637,-142 669.355,-75.5927 706.442,-72.3389 778,-54 867.448,-31.076 1126.44,-23.0239 1265.02,-20.3081"/>
<ellipse fill="none" stroke="#f3890c" cx="656.35" cy="-301.174" rx="4.00002" ry="4.00002"/>
<polygon fill="#f3890c" stroke="#f3890c" points="1265.19,-20.3049 1275.28,-24.6133 1270.19,-20.2095 1275.19,-20.1141 1275.19,-20.1141 1275.19,-20.1141 1270.19,-20.2095 1275.1,-15.6149 1265.19,-20.3049 1265.19,-20.3049"/>
<text text-anchor="middle" x="660" y="-156.3" font-family="Times,serif" font-size="14.00">versions</text>
</g>
<!-- PageContentElementAssignment -->
<g id="node7" class="node"><title>PageContentElementAssignment</title>
<ellipse fill="none" stroke="black" cx="1153" cy="-214" rx="128.058" ry="18"/>
<text text-anchor="middle" x="1153" y="-210.3" font-family="Times,serif" font-size="14.00">PageContentElementAssignment</text>
</g>
<!-- PageContentElementAssignment&#45;&gt;PaperTrail::Version -->
<g id="edge15" class="edge"><title>PageContentElementAssignment&#45;&gt;PaperTrail::Version</title>
<path fill="none" stroke="#3d135c" d="M1165.42,-188.502C1179.65,-161.891 1204.82,-119.035 1234,-88 1251.42,-69.4788 1258.15,-66.9959 1280,-54 1289.27,-48.4894 1299.54,-43.2027 1309.44,-38.482"/>
<ellipse fill="none" stroke="#3d135c" cx="1163.39" cy="-192.342" rx="4.00002" ry="4.00002"/>
<polygon fill="#3d135c" stroke="#3d135c" points="1309.7,-38.3596 1320.67,-38.2204 1314.24,-36.25 1318.77,-34.1405 1318.77,-34.1405 1318.77,-34.1405 1314.24,-36.25 1316.87,-30.0606 1309.7,-38.3596 1309.7,-38.3596"/>
<text text-anchor="middle" x="1257" y="-102.3" font-family="Times,serif" font-size="14.00">versions</text>
</g>
<!-- Supplyrelation -->
<g id="node8" class="node"><title>Supplyrelation</title>
<ellipse fill="none" stroke="black" cx="1878" cy="-214" rx="62.0922" ry="18"/>
<text text-anchor="middle" x="1878" y="-210.3" font-family="Times,serif" font-size="14.00">Supplyrelation</text>
</g>
<!-- Supplyrelation&#45;&gt;PaperTrail::Version -->
<g id="edge17" class="edge"><title>Supplyrelation&#45;&gt;PaperTrail::Version</title>
<path fill="none" stroke="#011a03" d="M1842.94,-193.615C1773.41,-155.452 1619.86,-72.6591 1563,-54 1522.76,-40.7941 1476.42,-32.3767 1437.71,-27.1165"/>
<ellipse fill="none" stroke="#011a03" cx="1846.69" cy="-195.677" rx="4.00002" ry="4.00002"/>
<polygon fill="#011a03" stroke="#011a03" points="1437.44,-27.0812 1428.11,-21.319 1432.48,-26.431 1427.52,-25.7808 1427.52,-25.7808 1427.52,-25.7808 1432.48,-26.431 1426.94,-30.2426 1437.44,-27.0812 1437.44,-27.0812"/>
<text text-anchor="middle" x="1734" y="-102.3" font-family="Times,serif" font-size="14.00">versions</text>
</g>
<!-- Guest -->
<g id="node9" class="node"><title>Guest</title>
<polygon fill="none" stroke="black" points="3268,-556 3214,-556 3214,-520 3268,-520 3268,-556"/>
<text text-anchor="middle" x="3241" y="-534.3" font-family="Times,serif" font-size="14.00">Guest</text>
</g>
<!-- JobLogger -->
<g id="node10" class="node"><title>JobLogger</title>
<polygon fill="none" stroke="black" points="3414,-556 3340,-556 3340,-520 3414,-520 3414,-556"/>
<text text-anchor="middle" x="3377" y="-534.3" font-family="Times,serif" font-size="14.00">JobLogger</text>
</g>
<!-- Download -->
<g id="node11" class="node"><title>Download</title>
<ellipse fill="none" stroke="black" cx="249" cy="-322" rx="47.169" ry="18"/>
<text text-anchor="middle" x="249" y="-318.3" font-family="Times,serif" font-size="14.00">Download</text>
</g>
<!-- Download&#45;&gt;PaperTrail::Version -->
<g id="edge21" class="edge"><title>Download&#45;&gt;PaperTrail::Version</title>
<path fill="none" stroke="#735f5b" d="M249.256,-295.486C251.448,-237.496 266.28,-97.4591 357,-54 397.514,-34.5917 1026.78,-23.666 1264.77,-20.2111"/>
<ellipse fill="none" stroke="#735f5b" cx="249.129" cy="-299.745" rx="4" ry="4"/>
<polygon fill="#735f5b" stroke="#735f5b" points="1265.12,-20.2061 1275.18,-24.5615 1270.12,-20.134 1275.12,-20.062 1275.12,-20.062 1275.12,-20.062 1270.12,-20.134 1275.05,-15.5624 1265.12,-20.2061 1265.12,-20.2061"/>
<text text-anchor="middle" x="303" y="-156.3" font-family="Times,serif" font-size="14.00">versions</text>
</g>
<!-- Toner -->
<g id="node12" class="node"><title>Toner</title>
<ellipse fill="none" stroke="black" cx="2751" cy="-376" rx="31.2735" ry="18"/>
<text text-anchor="middle" x="2751" y="-372.3" font-family="Times,serif" font-size="14.00">Toner</text>
</g>
<!-- Toner&#45;&gt;PaperTrail::Version -->
<g id="edge23" class="edge"><title>Toner&#45;&gt;PaperTrail::Version</title>
<path fill="none" stroke="#6b0c04" d="M2752.11,-349.33C2753.29,-285.057 2746.04,-117.8 2644,-54 2593.35,-22.3288 1730.75,-19.1404 1445.65,-18.9548"/>
<ellipse fill="none" stroke="#6b0c04" cx="2752" cy="-353.696" rx="4" ry="4"/>
<polygon fill="#6b0c04" stroke="#6b0c04" points="1445.35,-18.9548 1435.35,-14.4493 1440.35,-18.952 1435.35,-18.9493 1435.35,-18.9493 1435.35,-18.9493 1440.35,-18.952 1435.34,-23.4493 1445.35,-18.9548 1445.35,-18.9548"/>
<text text-anchor="middle" x="2766" y="-210.3" font-family="Times,serif" font-size="14.00">versions</text>
</g>
<!-- Conversation -->
<g id="node13" class="node"><title>Conversation</title>
<ellipse fill="none" stroke="black" cx="371" cy="-430" rx="57.2688" ry="18"/>
<text text-anchor="middle" x="371" y="-426.3" font-family="Times,serif" font-size="14.00">Conversation</text>
</g>
<!-- Conversation&#45;&gt;Suggestion -->
<g id="edge32" class="edge"><title>Conversation&#45;&gt;Suggestion</title>
<path fill="none" stroke="#51e2f0" d="M369.336,-403.795C368.275,-387.735 366.901,-366.927 365.813,-350.45"/>
<ellipse fill="none" stroke="#51e2f0" cx="369.612" cy="-407.978" rx="4" ry="4"/>
<polygon fill="#51e2f0" stroke="#51e2f0" points="365.804,-350.319 369.635,-340.044 365.475,-345.33 365.145,-340.341 365.145,-340.341 365.145,-340.341 365.475,-345.33 360.655,-340.637 365.804,-350.319 365.804,-350.319"/>
</g>
<!-- Conversation&#45;&gt;Offer -->
<g id="edge29" class="edge"><title>Conversation&#45;&gt;Offer</title>
<path fill="none" stroke="#ba5fd5" d="M422.073,-415.963C458.527,-406.625 501.827,-395.45 506,-394 552.286,-377.913 603.778,-354.11 635.78,-338.577"/>
<ellipse fill="none" stroke="#ba5fd5" cx="417.814" cy="-417.053" rx="4.00001" ry="4.00001"/>
<polygon fill="#ba5fd5" stroke="#ba5fd5" points="636.075,-338.433 647.035,-338.082 640.566,-336.236 645.058,-334.04 645.058,-334.04 645.058,-334.04 640.566,-336.236 643.081,-329.997 636.075,-338.433 636.075,-338.433"/>
</g>
<!-- Conversation&#45;&gt;Download -->
<g id="edge26" class="edge"><title>Conversation&#45;&gt;Download</title>
<path fill="none" stroke="#a5ba49" d="M361.218,-404.557C354.155,-389.49 343.338,-370.69 329,-358 319.236,-349.358 307.003,-342.573 295.062,-337.371"/>
<ellipse fill="none" stroke="#a5ba49" cx="362.935" cy="-408.393" rx="4.00002" ry="4.00002"/>
<polygon fill="#a5ba49" stroke="#a5ba49" points="294.868,-337.293 287.292,-329.364 290.234,-335.414 285.601,-333.535 285.601,-333.535 285.601,-333.535 290.234,-335.414 283.91,-337.705 294.868,-337.293 294.868,-337.293"/>
</g>
<!-- Message -->
<g id="node14" class="node"><title>Message</title>
<ellipse fill="none" stroke="black" cx="141" cy="-322" rx="42.3701" ry="18"/>
<text text-anchor="middle" x="141" y="-318.3" font-family="Times,serif" font-size="14.00">Message</text>
</g>
<!-- Conversation&#45;&gt;Message -->
<g id="edge27" class="edge"><title>Conversation&#45;&gt;Message</title>
<path fill="none" stroke="#06005a" d="M332.538,-411.274C289.467,-391.424 220.163,-359.484 177.787,-339.954"/>
<ellipse fill="none" stroke="#06005a" cx="336.348" cy="-413.03" rx="4.00002" ry="4.00002"/>
<polygon fill="#06005a" stroke="#06005a" points="177.74,-339.932 170.541,-331.66 173.199,-337.839 168.658,-335.747 168.658,-335.747 168.658,-335.747 173.199,-337.839 166.774,-339.833 177.74,-339.932 177.74,-339.932"/>
</g>
<!-- Conversation&#45;&gt;Product -->
<g id="edge31" class="edge"><title>Conversation&#45;&gt;Product</title>
<path fill="none" stroke="#996a55" d="M422.283,-414.983C427.564,-413.841 432.872,-412.816 438,-412 555.897,-393.243 586.946,-402.811 706,-394 1023.4,-370.509 1404.99,-338.289 1536.65,-327.058"/>
<polygon fill="#996a55" stroke="#996a55" points="421.961,-415.057 411.207,-412.909 417.088,-416.176 412.215,-417.295 412.215,-417.295 412.215,-417.295 417.088,-416.176 413.222,-421.681 421.961,-415.057 421.961,-415.057"/>
<polygon fill="#996a55" stroke="#996a55" points="1536.82,-327.043 1547.17,-330.676 1541.81,-326.617 1546.79,-326.192 1546.79,-326.192 1546.79,-326.192 1541.81,-326.617 1546.4,-321.708 1536.82,-327.043 1536.82,-327.043"/>
</g>
<!-- Link -->
<g id="node38" class="node"><title>Link</title>
<ellipse fill="none" stroke="black" cx="592" cy="-322" rx="26.949" ry="18"/>
<text text-anchor="middle" x="592" y="-318.3" font-family="Times,serif" font-size="14.00">Link</text>
</g>
<!-- Conversation&#45;&gt;Link -->
<g id="edge28" class="edge"><title>Conversation&#45;&gt;Link</title>
<path fill="none" stroke="#29ebf8" d="M413.115,-412.538C426.897,-406.918 442.207,-400.424 456,-394 493.365,-376.597 535.253,-354.289 562.542,-339.366"/>
<ellipse fill="none" stroke="#29ebf8" cx="409.342" cy="-414.065" rx="4.00001" ry="4.00001"/>
<polygon fill="#29ebf8" stroke="#29ebf8" points="562.79,-339.23 573.721,-338.36 567.172,-336.823 571.554,-334.416 571.554,-334.416 571.554,-334.416 567.172,-336.823 569.388,-330.471 562.79,-339.23 562.79,-339.23"/>
</g>
<!-- Order -->
<g id="node41" class="node"><title>Order</title>
<ellipse fill="none" stroke="black" cx="746" cy="-322" rx="31.2965" ry="18"/>
<text text-anchor="middle" x="746" y="-318.3" font-family="Times,serif" font-size="14.00">Order</text>
</g>
<!-- Conversation&#45;&gt;Order -->
<g id="edge30" class="edge"><title>Conversation&#45;&gt;Order</title>
<path fill="none" stroke="#0e7f57" d="M420.832,-415.74C426.601,-414.388 432.416,-413.107 438,-412 493.057,-401.083 508.661,-408.061 563,-394 628.368,-377.086 642.252,-364.933 705,-340 707.236,-339.112 709.536,-338.187 711.851,-337.249"/>
<ellipse fill="none" stroke="#0e7f57" cx="416.909" cy="-416.682" rx="4.00001" ry="4.00001"/>
<polygon fill="#0e7f57" stroke="#0e7f57" points="712.078,-337.156 723.037,-337.531 716.705,-335.261 721.332,-333.367 721.332,-333.367 721.332,-333.367 716.705,-335.261 719.627,-329.202 712.078,-337.156 712.078,-337.156"/>
<text text-anchor="middle" x="682" y="-372.3" font-family="Times,serif" font-size="14.00">baskets</text>
</g>
<!-- Conversation&#45;&gt;PaperTrail::Version -->
<g id="edge25" class="edge"><title>Conversation&#45;&gt;PaperTrail::Version</title>
<path fill="none" stroke="#b94fec" d="M389.551,-405.314C401.701,-388.229 416.494,-364.032 423,-340 439.773,-278.044 396.12,-258.191 412,-196 430.545,-123.372 434.815,-85.1372 503,-54 570.787,-23.0447 1059.01,-19.1319 1264.37,-18.872"/>
<ellipse fill="none" stroke="#b94fec" cx="386.896" cy="-408.949" rx="4.00002" ry="4.00002"/>
<polygon fill="#b94fec" stroke="#b94fec" points="1264.52,-18.8719 1274.52,-23.3618 1269.52,-18.8669 1274.52,-18.8618 1274.52,-18.8618 1274.52,-18.8618 1269.52,-18.8669 1274.52,-14.3618 1264.52,-18.8719 1264.52,-18.8719"/>
<text text-anchor="middle" x="435" y="-210.3" font-family="Times,serif" font-size="14.00">versions</text>
</g>
<!-- Message&#45;&gt;PaperTrail::Version -->
<g id="edge34" class="edge"><title>Message&#45;&gt;PaperTrail::Version</title>
<path fill="none" stroke="#f6125b" d="M147.537,-295.867C157.95,-259.262 180.992,-190.385 218,-142 256.248,-91.9942 269.895,-75.6804 329,-54 415.354,-22.3246 1029.58,-18.9752 1264.21,-18.8658"/>
<ellipse fill="none" stroke="#f6125b" cx="146.344" cy="-300.166" rx="4.00001" ry="4.00001"/>
<polygon fill="#f6125b" stroke="#f6125b" points="1264.42,-18.8658 1274.42,-23.363 1269.42,-18.8644 1274.42,-18.863 1274.42,-18.863 1274.42,-18.863 1269.42,-18.8644 1274.42,-14.363 1264.42,-18.8658 1264.42,-18.8658"/>
<text text-anchor="middle" x="241" y="-156.3" font-family="Times,serif" font-size="14.00">versions</text>
</g>
<!-- User -->
<g id="node15" class="node"><title>User</title>
<ellipse fill="none" stroke="black" cx="603" cy="-538" rx="26.949" ry="18"/>
<text text-anchor="middle" x="603" y="-534.3" font-family="Times,serif" font-size="14.00">User</text>
</g>
<!-- User&#45;&gt;Address -->
<g id="edge37" class="edge"><title>User&#45;&gt;Address</title>
<path fill="none" stroke="#9bab1e" d="M569.42,-529.639C539.332,-522.907 494.055,-512.434 455,-502 385.384,-483.401 305.238,-458.829 257.975,-444.008"/>
<ellipse fill="none" stroke="#9bab1e" cx="573.581" cy="-530.566" rx="4.00001" ry="4.00001"/>
<polygon fill="#9bab1e" stroke="#9bab1e" points="257.944,-443.998 249.754,-436.706 253.174,-442.499 248.404,-440.999 248.404,-440.999 248.404,-440.999 253.174,-442.499 247.055,-445.292 257.944,-443.998 257.944,-443.998"/>
</g>
<!-- User&#45;&gt;Offer -->
<g id="edge40" class="edge"><title>User&#45;&gt;Offer</title>
<path fill="none" stroke="#7dcd2e" d="M613.083,-512.773C614.463,-509.184 615.811,-505.512 617,-502 635.004,-448.822 651.632,-385.239 660.438,-349.963"/>
<ellipse fill="none" stroke="#7dcd2e" cx="611.537" cy="-516.683" rx="4.00001" ry="4.00001"/>
<polygon fill="#7dcd2e" stroke="#7dcd2e" points="660.51,-349.673 667.281,-341.048 661.711,-344.82 662.912,-339.966 662.912,-339.966 662.912,-339.966 661.711,-344.82 658.544,-338.885 660.51,-349.673 660.51,-349.673"/>
</g>
<!-- User&#45;&gt;Conversation -->
<g id="edge41" class="edge"><title>User&#45;&gt;Conversation</title>
<path fill="none" stroke="#1e01de" d="M574.086,-522.574C544.406,-507.898 496.782,-484.711 455,-466 441.889,-460.129 427.494,-454.012 414.382,-448.566"/>
<ellipse fill="none" stroke="#1e01de" cx="578.012" cy="-524.52" rx="4.00002" ry="4.00002"/>
<polygon fill="#1e01de" stroke="#1e01de" points="414.34,-448.549 406.815,-440.573 409.719,-446.64 405.097,-444.732 405.097,-444.732 405.097,-444.732 409.719,-446.64 403.38,-448.891 414.34,-448.549 414.34,-448.549"/>
</g>
<!-- BillingAddress -->
<g id="node16" class="node"><title>BillingAddress</title>
<ellipse fill="none" stroke="black" cx="511" cy="-430" rx="63.5411" ry="18"/>
<text text-anchor="middle" x="511" y="-426.3" font-family="Times,serif" font-size="14.00">BillingAddress</text>
</g>
<!-- User&#45;&gt;BillingAddress -->
<g id="edge38" class="edge"><title>User&#45;&gt;BillingAddress</title>
<path fill="none" stroke="#e3cff6" d="M584.473,-515.654C569.356,-498.236 547.989,-473.618 532.192,-455.417"/>
<ellipse fill="none" stroke="#e3cff6" cx="587.197" cy="-518.792" rx="4.00002" ry="4.00002"/>
<polygon fill="#e3cff6" stroke="#e3cff6" points="531.923,-455.107 528.767,-444.606 528.646,-451.331 525.369,-447.555 525.369,-447.555 525.369,-447.555 528.646,-451.331 521.97,-450.505 531.923,-455.107 531.923,-455.107"/>
</g>
<!-- User&#45;&gt;Order -->
<g id="edge39" class="edge"><title>User&#45;&gt;Order</title>
<path fill="none" stroke="#1bb2a2" d="M623.873,-516.897C628.391,-512.174 633.007,-507.043 637,-502 677.155,-451.286 714.107,-384.68 732.938,-348.715"/>
<ellipse fill="none" stroke="#1bb2a2" cx="621.058" cy="-519.768" rx="4.00002" ry="4.00002"/>
<polygon fill="#1bb2a2" stroke="#1bb2a2" points="733.153,-348.3 741.751,-341.493 735.455,-343.861 737.756,-339.422 737.756,-339.422 737.756,-339.422 735.455,-343.861 733.762,-337.351 733.153,-348.3 733.153,-348.3"/>
</g>
<!-- User&#45;&gt;PaperTrail::Version -->
<g id="edge36" class="edge"><title>User&#45;&gt;PaperTrail::Version</title>
<path fill="none" stroke="#54e94e" d="M600.5,-511.743C597.621,-486.266 592.08,-445.953 583,-412 567.518,-354.109 545.846,-344.936 535,-286 518.573,-196.736 526.303,-157.228 585,-88 606.852,-62.2274 620.318,-62.5799 653,-54 765.748,-24.4007 1101.2,-19.4877 1264.15,-18.8998"/>
<ellipse fill="none" stroke="#54e94e" cx="600.943" cy="-515.807" rx="4.00001" ry="4.00001"/>
<polygon fill="#54e94e" stroke="#54e94e" points="1264.63,-18.8984 1274.65,-23.3671 1269.63,-18.8828 1274.63,-18.8672 1274.63,-18.8672 1274.63,-18.8672 1269.63,-18.8828 1274.62,-14.3672 1264.63,-18.8984 1264.63,-18.8984"/>
<text text-anchor="middle" x="558" y="-264.3" font-family="Times,serif" font-size="14.00">versions</text>
</g>
<!-- BillingAddress&#45;&gt;PaperTrail::Version -->
<g id="edge43" class="edge"><title>BillingAddress&#45;&gt;PaperTrail::Version</title>
<path fill="none" stroke="#bf3e5e" d="M501.147,-404.07C475.694,-335.085 416.741,-141.025 521,-54 549.169,-30.4869 1054.9,-22.2707 1264.82,-19.865"/>
<ellipse fill="none" stroke="#bf3e5e" cx="502.663" cy="-408.104" rx="4.00001" ry="4.00001"/>
<polygon fill="#bf3e5e" stroke="#bf3e5e" points="1264.89,-19.8642 1274.94,-24.2511 1269.89,-19.8078 1274.89,-19.7514 1274.89,-19.7514 1274.89,-19.7514 1269.89,-19.8078 1274.84,-15.2517 1264.89,-19.8642 1264.89,-19.8642"/>
<text text-anchor="middle" x="486" y="-210.3" font-family="Times,serif" font-size="14.00">versions</text>
</g>
<!-- Contract -->
<g id="node17" class="node"><title>Contract</title>
<ellipse fill="none" stroke="black" cx="2806" cy="-268" rx="40.4202" ry="18"/>
<text text-anchor="middle" x="2806" y="-264.3" font-family="Times,serif" font-size="14.00">Contract</text>
</g>
<!-- Contract&#45;&gt;PaperTrail::Version -->
<g id="edge45" class="edge"><title>Contract&#45;&gt;PaperTrail::Version</title>
<path fill="none" stroke="#2b9100" d="M2809.69,-241.825C2810.49,-227.244 2809.07,-209.218 2800,-196 2789.66,-180.919 2773.91,-192.679 2763,-178 2729.71,-133.19 2785.04,-90.727 2743,-54 2718.52,-32.6103 1749.01,-22.4115 1445.12,-19.7358"/>
<ellipse fill="none" stroke="#2b9100" cx="2809.34" cy="-245.964" rx="4" ry="4"/>
<polygon fill="#2b9100" stroke="#2b9100" points="1445.03,-19.7351 1435.07,-15.1477 1440.03,-19.6913 1435.03,-19.6476 1435.03,-19.6476 1435.03,-19.6476 1440.03,-19.6913 1434.99,-24.1474 1445.03,-19.7351 1445.03,-19.7351"/>
<text text-anchor="middle" x="2786" y="-156.3" font-family="Times,serif" font-size="14.00">versions</text>
</g>
<!-- Category -->
<g id="node18" class="node"><title>Category</title>
<ellipse fill="none" stroke="black" cx="2510" cy="-430" rx="42.3456" ry="18"/>
<text text-anchor="middle" x="2510" y="-426.3" font-family="Times,serif" font-size="14.00">Category</text>
</g>
<!-- Category&#45;&gt;Product -->
<g id="edge48" class="edge"><title>Category&#45;&gt;Product</title>
<path fill="none" stroke="#67b4e1" d="M2459.66,-423.238C2297.28,-404.649 1788.69,-346.431 1631.06,-328.387"/>
<polygon fill="#67b4e1" stroke="#67b4e1" points="2459.68,-423.24 2469.1,-428.848 2464.65,-423.808 2469.62,-424.377 2469.62,-424.377 2469.62,-424.377 2464.65,-423.808 2470.13,-419.906 2459.68,-423.24 2459.68,-423.24"/>
<polygon fill="#67b4e1" stroke="#67b4e1" points="1630.69,-328.345 1621.27,-322.737 1625.72,-327.776 1620.76,-327.208 1620.76,-327.208 1620.76,-327.208 1625.72,-327.776 1620.25,-331.678 1630.69,-328.345 1630.69,-328.345"/>
</g>
<!-- Categorization -->
<g id="node35" class="node"><title>Categorization</title>
<ellipse fill="none" stroke="black" cx="2532" cy="-214" rx="62.0922" ry="18"/>
<text text-anchor="middle" x="2532" y="-210.3" font-family="Times,serif" font-size="14.00">Categorization</text>
</g>
<!-- Category&#45;&gt;Categorization -->
<g id="edge49" class="edge"><title>Category&#45;&gt;Categorization</title>
<path fill="none" stroke="#2b526c" d="M2512.6,-403.67C2516.77,-363.116 2524.91,-283.949 2529.2,-242.227"/>
<ellipse fill="none" stroke="#2b526c" cx="2512.17" cy="-407.87" rx="4" ry="4"/>
<polygon fill="#2b526c" stroke="#2b526c" points="2529.21,-242.18 2534.7,-232.693 2529.72,-237.206 2530.23,-232.232 2530.23,-232.232 2530.23,-232.232 2529.72,-237.206 2525.75,-231.772 2529.21,-242.18 2529.21,-242.18"/>
</g>
<!-- Category&#45;&gt;PaperTrail::Version -->
<g id="edge47" class="edge"><title>Category&#45;&gt;PaperTrail::Version</title>
<path fill="none" stroke="#357fda" d="M2525.99,-405.297C2573.65,-332.01 2703.64,-110.6 2575,-54 2523.57,-31.3702 1719.55,-22.211 1445.61,-19.7371"/>
<ellipse fill="none" stroke="#357fda" cx="2523.58" cy="-408.968" rx="4.00002" ry="4.00002"/>
<polygon fill="#357fda" stroke="#357fda" points="1445.3,-19.7345 1435.34,-15.1452 1440.3,-19.6897 1435.3,-19.645 1435.3,-19.645 1435.3,-19.645 1440.3,-19.6897 1435.26,-24.1448 1445.3,-19.7345 1445.3,-19.7345"/>
<text text-anchor="middle" x="2647" y="-210.3" font-family="Times,serif" font-size="14.00">versions</text>
</g>
<!-- Webpage -->
<g id="node19" class="node"><title>Webpage</title>
<ellipse fill="none" stroke="black" cx="1082" cy="-430" rx="44.2946" ry="18"/>
<text text-anchor="middle" x="1082" y="-426.3" font-family="Times,serif" font-size="14.00">Webpage</text>
</g>
<!-- Webpage&#45;&gt;PageContentElementAssignment -->
<g id="edge52" class="edge"><title>Webpage&#45;&gt;PageContentElementAssignment</title>
<path fill="none" stroke="#1bad1d" d="M1089.69,-404.154C1100.49,-369.488 1120.99,-304.705 1140,-250 1140.96,-247.245 1141.98,-244.377 1143.02,-241.521"/>
<ellipse fill="none" stroke="#1bad1d" cx="1088.47" cy="-408.071" rx="4.00001" ry="4.00001"/>
<polygon fill="#1bad1d" stroke="#1bad1d" points="1143.05,-241.422 1150.73,-233.593 1144.78,-236.73 1146.51,-232.038 1146.51,-232.038 1146.51,-232.038 1144.78,-236.73 1142.28,-230.483 1143.05,-241.422 1143.05,-241.422"/>
</g>
<!-- ContentElement -->
<g id="node27" class="node"><title>ContentElement</title>
<ellipse fill="none" stroke="black" cx="1250" cy="-322" rx="68.3664" ry="18"/>
<text text-anchor="middle" x="1250" y="-318.3" font-family="Times,serif" font-size="14.00">ContentElement</text>
</g>
<!-- Webpage&#45;&gt;ContentElement -->
<g id="edge53" class="edge"><title>Webpage&#45;&gt;ContentElement</title>
<path fill="none" stroke="#317e7b" d="M1113.61,-409.057C1142.8,-390.64 1186.04,-363.357 1215.97,-344.469"/>
<polygon fill="#317e7b" stroke="#317e7b" points="1113.46,-409.147 1102.61,-410.678 1109.24,-411.815 1105.01,-414.483 1105.01,-414.483 1105.01,-414.483 1109.24,-411.815 1107.41,-418.289 1113.46,-409.147 1113.46,-409.147"/>
<polygon fill="#317e7b" stroke="#317e7b" points="1216.35,-344.232 1227.21,-342.701 1220.58,-341.564 1224.81,-338.896 1224.81,-338.896 1224.81,-338.896 1220.58,-341.564 1222.41,-335.09 1216.35,-344.232 1216.35,-344.232"/>
</g>
<!-- Webpage&#45;&gt;PaperTrail::Version -->
<g id="edge51" class="edge"><title>Webpage&#45;&gt;PaperTrail::Version</title>
<path fill="none" stroke="#303ed2" d="M1064.94,-405.986C1028.14,-355.044 946.475,-234.246 970,-196 1035.66,-89.2486 1184.43,-46.1921 1276.62,-29.3315"/>
<ellipse fill="none" stroke="#303ed2" cx="1067.47" cy="-409.459" rx="4.00002" ry="4.00002"/>
<polygon fill="#303ed2" stroke="#303ed2" points="1276.89,-29.2832 1287.52,-31.9752 1281.82,-28.4135 1286.74,-27.5438 1286.74,-27.5438 1286.74,-27.5438 1281.82,-28.4135 1285.96,-23.1124 1276.89,-29.2832 1276.89,-29.2832"/>
<text text-anchor="middle" x="993" y="-210.3" font-family="Times,serif" font-size="14.00">versions</text>
</g>
<!-- Feedback -->
<g id="node20" class="node"><title>Feedback</title>
<ellipse fill="none" stroke="black" cx="2862" cy="-160" rx="44.2946" ry="18"/>
<text text-anchor="middle" x="2862" y="-156.3" font-family="Times,serif" font-size="14.00">Feedback</text>
</g>
<!-- Feedback&#45;&gt;PaperTrail::Version -->
<g id="edge55" class="edge"><title>Feedback&#45;&gt;PaperTrail::Version</title>
<path fill="none" stroke="#a28603" d="M2851.19,-134.693C2838.46,-109.376 2814.68,-71.0739 2781,-54 2721.43,-23.8069 1749.54,-19.6463 1445.3,-19.0844"/>
<ellipse fill="none" stroke="#a28603" cx="2853.04" cy="-138.497" rx="4.00002" ry="4.00002"/>
<polygon fill="#a28603" stroke="#a28603" points="1445.2,-19.0843 1435.21,-14.5666 1440.2,-19.0754 1435.2,-19.0666 1435.2,-19.0666 1435.2,-19.0666 1440.2,-19.0754 1435.19,-23.5666 1445.2,-19.0843 1445.2,-19.0843"/>
<text text-anchor="middle" x="2868" y="-102.3" font-family="Times,serif" font-size="14.00">versions</text>
</g>
<!-- Feature -->
<g id="node21" class="node"><title>Feature</title>
<ellipse fill="none" stroke="black" cx="1995" cy="-214" rx="37.0701" ry="18"/>
<text text-anchor="middle" x="1995" y="-210.3" font-family="Times,serif" font-size="14.00">Feature</text>
</g>
<!-- Feature&#45;&gt;PaperTrail::Version -->
<g id="edge57" class="edge"><title>Feature&#45;&gt;PaperTrail::Version</title>
<path fill="none" stroke="#26f280" d="M1967.06,-194.624C1924.38,-167.375 1839.62,-116.423 1761,-88 1654.72,-49.5736 1524.89,-32.2939 1441.12,-24.6968"/>
<ellipse fill="none" stroke="#26f280" cx="1970.67" cy="-196.944" rx="4.00002" ry="4.00002"/>
<polygon fill="#26f280" stroke="#26f280" points="1441.1,-24.695 1431.53,-19.3349 1436.11,-24.2562 1431.13,-23.8175 1431.13,-23.8175 1431.13,-23.8175 1436.11,-24.2562 1430.74,-28.3002 1441.1,-24.695 1441.1,-24.695"/>
<text text-anchor="middle" x="1866" y="-102.3" font-family="Times,serif" font-size="14.00">versions</text>
</g>
<!-- Offeritem&#45;&gt;PaperTrail::Version -->
<g id="edge59" class="edge"><title>Offeritem&#45;&gt;PaperTrail::Version</title>
<path fill="none" stroke="#9aa587" d="M748.621,-188.521C765.452,-153.226 795.041,-91.8233 799,-88 825.326,-62.5753 838.531,-63.0238 874,-54 945.65,-35.7711 1147.35,-26.0363 1265.57,-21.7513"/>
<ellipse fill="none" stroke="#9aa587" cx="746.758" cy="-192.433" rx="4.00002" ry="4.00002"/>
<polygon fill="#9aa587" stroke="#9aa587" points="1265.7,-21.747 1275.85,-25.8876 1270.7,-21.5687 1275.69,-21.3905 1275.69,-21.3905 1275.69,-21.3905 1270.7,-21.5687 1275.53,-16.8933 1265.7,-21.747 1265.7,-21.747"/>
<text text-anchor="middle" x="822" y="-102.3" font-family="Times,serif" font-size="14.00">versions</text>
</g>
<!-- Constant -->
<g id="node23" class="node"><title>Constant</title>
<ellipse fill="none" stroke="black" cx="2919" cy="-484" rx="42.3701" ry="18"/>
<text text-anchor="middle" x="2919" y="-480.3" font-family="Times,serif" font-size="14.00">Constant</text>
</g>
<!-- Constant&#45;&gt;PaperTrail::Version -->
<g id="edge61" class="edge"><title>Constant&#45;&gt;PaperTrail::Version</title>
<path fill="none" stroke="#008385" d="M2921.3,-457.252C2927.74,-378.569 2942.56,-143.292 2895,-88 2867.66,-56.2133 2848.12,-62.1819 2807,-54 2674.25,-27.5886 1742.84,-20.8601 1445.8,-19.3766"/>
<ellipse fill="none" stroke="#008385" cx="2920.93" cy="-461.646" rx="4" ry="4"/>
<polygon fill="#008385" stroke="#008385" points="1445.5,-19.3753 1435.52,-14.8261 1440.5,-19.3507 1435.5,-19.326 1435.5,-19.326 1435.5,-19.326 1440.5,-19.3507 1435.48,-23.826 1445.5,-19.3753 1445.5,-19.3753"/>
<text text-anchor="middle" x="2952" y="-264.3" font-family="Times,serif" font-size="14.00">versions</text>
</g>
<!-- Country -->
<g id="node24" class="node"><title>Country</title>
<ellipse fill="none" stroke="black" cx="2976" cy="-376" rx="39.4691" ry="18"/>
<text text-anchor="middle" x="2976" y="-372.3" font-family="Times,serif" font-size="14.00">Country</text>
</g>
<!-- Country&#45;&gt;PaperTrail::Version -->
<g id="edge63" class="edge"><title>Country&#45;&gt;PaperTrail::Version</title>
<path fill="none" stroke="#c30af7" d="M2977.5,-349.486C2978.64,-328.021 2980,-296.516 2980,-269 2980,-269 2980,-269 2980,-105 2980,-74.7712 2962.41,-66.7382 2935,-54 2867.27,-22.5284 1771.53,-19.2732 1445.7,-19.0029"/>
<ellipse fill="none" stroke="#c30af7" cx="2977.27" cy="-353.755" rx="4" ry="4"/>
<polygon fill="#c30af7" stroke="#c30af7" points="1445.36,-19.0027 1435.36,-14.4951 1440.36,-18.9989 1435.36,-18.9951 1435.36,-18.9951 1435.36,-18.9951 1440.36,-18.9989 1435.35,-23.4951 1445.36,-19.0027 1445.36,-19.0027"/>
<text text-anchor="middle" x="3003" y="-210.3" font-family="Times,serif" font-size="14.00">versions</text>
</g>
<!-- PageTemplate -->
<g id="node25" class="node"><title>PageTemplate</title>
<ellipse fill="none" stroke="black" cx="1026" cy="-538" rx="61.6163" ry="18"/>
<text text-anchor="middle" x="1026" y="-534.3" font-family="Times,serif" font-size="14.00">PageTemplate</text>
</g>
<!-- PageTemplate&#45;&gt;Webpage -->
<g id="edge66" class="edge"><title>PageTemplate&#45;&gt;Webpage</title>
<path fill="none" stroke="#d188df" d="M1038.81,-512.752C1047.69,-495.941 1059.5,-473.597 1068.52,-456.518"/>
<ellipse fill="none" stroke="#d188df" cx="1036.87" cy="-516.432" rx="4.00002" ry="4.00002"/>
<polygon fill="#d188df" stroke="#d188df" points="1068.54,-456.481 1077.19,-449.741 1070.87,-452.06 1073.21,-447.639 1073.21,-447.639 1073.21,-447.639 1070.87,-452.06 1069.23,-445.537 1068.54,-456.481 1068.54,-456.481"/>
</g>
<!-- PageTemplate&#45;&gt;PaperTrail::Version -->
<g id="edge65" class="edge"><title>PageTemplate&#45;&gt;PaperTrail::Version</title>
<path fill="none" stroke="#52d2da" d="M1012.58,-513.048C989.028,-469.495 941.142,-373.715 924,-286 910.829,-218.606 939.44,-197.411 980,-142 1000.05,-114.612 1005.24,-106.02 1034,-88 1103.95,-44.1745 1197.48,-27.8519 1265.53,-21.9404"/>
<ellipse fill="none" stroke="#52d2da" cx="1014.49" cy="-516.559" rx="4.00002" ry="4.00002"/>
<polygon fill="#52d2da" stroke="#52d2da" points="1265.84,-21.9159 1276.17,-25.5954 1270.82,-21.513 1275.8,-21.11 1275.8,-21.11 1275.8,-21.11 1270.82,-21.513 1275.44,-16.6246 1265.84,-21.9159 1265.84,-21.9159"/>
<text text-anchor="middle" x="947" y="-264.3" font-family="Times,serif" font-size="14.00">versions</text>
</g>
<!-- Property&#45;&gt;Product -->
<g id="edge69" class="edge"><title>Property&#45;&gt;Product</title>
<path fill="none" stroke="#b32d6b" d="M1508.49,-404.371C1518.85,-390.321 1532.55,-372.647 1546,-358 1550.04,-353.598 1554.55,-349.117 1559.02,-344.896"/>
<polygon fill="#b32d6b" stroke="#b32d6b" points="1508.39,-404.509 1498.86,-409.941 1505.45,-408.55 1502.5,-412.591 1502.5,-412.591 1502.5,-412.591 1505.45,-408.55 1506.14,-415.241 1508.39,-404.509 1508.39,-404.509"/>
<polygon fill="#b32d6b" stroke="#b32d6b" points="1559.04,-344.876 1569.44,-341.406 1562.72,-341.487 1566.39,-338.097 1566.39,-338.097 1566.39,-338.097 1562.72,-341.487 1563.34,-334.789 1559.04,-344.876 1559.04,-344.876"/>
</g>
<!-- Property&#45;&gt;Value -->
<g id="edge70" class="edge"><title>Property&#45;&gt;Value</title>
<path fill="none" stroke="#ce7ee8" d="M1485.38,-403.882C1474.95,-357.804 1452.93,-263.253 1445,-250 1441.87,-244.773 1437.73,-239.856 1433.33,-235.453"/>
<ellipse fill="none" stroke="#ce7ee8" cx="1486.31" cy="-407.99" rx="4.00001" ry="4.00001"/>
<polygon fill="#ce7ee8" stroke="#ce7ee8" points="1433.19,-235.324 1428.87,-225.247 1429.51,-231.943 1425.82,-228.563 1425.82,-228.563 1425.82,-228.563 1429.51,-231.943 1422.78,-231.879 1433.19,-235.324 1433.19,-235.324"/>
</g>
<!-- Property&#45;&gt;PaperTrail::Version -->
<g id="edge68" class="edge"><title>Property&#45;&gt;PaperTrail::Version</title>
<path fill="none" stroke="#bd3402" d="M1493.27,-403.826C1497.41,-344.301 1500.73,-192.076 1439,-88 1427.6,-68.7865 1408.79,-52.5893 1391.85,-40.7266"/>
<ellipse fill="none" stroke="#bd3402" cx="1492.96" cy="-407.931" rx="4" ry="4"/>
<polygon fill="#bd3402" stroke="#bd3402" points="1391.51,-40.5011 1385.72,-31.1897 1387.36,-37.7132 1383.21,-34.9252 1383.21,-34.9252 1383.21,-34.9252 1387.36,-37.7132 1380.7,-38.6608 1391.51,-40.5011 1391.51,-40.5011"/>
<text text-anchor="middle" x="1510" y="-210.3" font-family="Times,serif" font-size="14.00">versions</text>
</g>
<!-- ContentElement&#45;&gt;PageContentElementAssignment -->
<g id="edge73" class="edge"><title>ContentElement&#45;&gt;PageContentElementAssignment</title>
<path fill="none" stroke="#8cafe6" d="M1229.25,-298.324C1213.52,-281.13 1191.91,-257.519 1175.71,-239.82"/>
<ellipse fill="none" stroke="#8cafe6" cx="1232.14" cy="-301.487" rx="4.00002" ry="4.00002"/>
<polygon fill="#8cafe6" stroke="#8cafe6" points="1175.44,-239.526 1172.01,-229.111 1172.07,-235.837 1168.69,-232.149 1168.69,-232.149 1168.69,-232.149 1172.07,-235.837 1165.37,-235.186 1175.44,-239.526 1175.44,-239.526"/>
</g>
<!-- ContentElement&#45;&gt;PaperTrail::Version -->
<g id="edge72" class="edge"><title>ContentElement&#45;&gt;PaperTrail::Version</title>
<path fill="none" stroke="#80d051" d="M1263.99,-296.464C1273.15,-279.063 1284.44,-254.837 1290,-232 1299.48,-193.077 1284.91,-180.77 1295,-142 1304.25,-106.478 1324.19,-69.0338 1338.54,-44.9247"/>
<ellipse fill="none" stroke="#80d051" cx="1261.85" cy="-300.429" rx="4.00002" ry="4.00002"/>
<polygon fill="#80d051" stroke="#80d051" points="1338.73,-44.6101 1347.77,-38.4013 1341.33,-40.3372 1343.93,-36.0643 1343.93,-36.0643 1343.93,-36.0643 1341.33,-40.3372 1340.08,-33.7273 1338.73,-44.6101 1338.73,-44.6101"/>
<text text-anchor="middle" x="1318" y="-156.3" font-family="Times,serif" font-size="14.00">versions</text>
</g>
<!-- Lineitem -->
<g id="node28" class="node"><title>Lineitem</title>
<ellipse fill="none" stroke="black" cx="844" cy="-214" rx="42.3456" ry="18"/>
<text text-anchor="middle" x="844" y="-210.3" font-family="Times,serif" font-size="14.00">Lineitem</text>
</g>
<!-- Lineitem&#45;&gt;PaperTrail::Version -->
<g id="edge75" class="edge"><title>Lineitem&#45;&gt;PaperTrail::Version</title>
<path fill="none" stroke="#5ba12d" d="M842.389,-187.786C841.864,-161.107 844.489,-118.702 863,-88 876.127,-66.2282 885.184,-62.8942 909,-54 971.973,-30.4828 1153.69,-22.7666 1264.79,-20.2354"/>
<ellipse fill="none" stroke="#5ba12d" cx="842.523" cy="-191.863" rx="4" ry="4"/>
<polygon fill="#5ba12d" stroke="#5ba12d" points="1264.98,-20.2312 1275.08,-24.5121 1269.98,-20.1222 1274.98,-20.0131 1274.98,-20.0131 1274.98,-20.0131 1269.98,-20.1222 1274.88,-15.5142 1264.98,-20.2312 1264.98,-20.2312"/>
<text text-anchor="middle" x="886" y="-102.3" font-family="Times,serif" font-size="14.00">versions</text>
</g>
<!-- Product&#45;&gt;Supplyrelation -->
<g id="edge86" class="edge"><title>Product&#45;&gt;Supplyrelation</title>
<path fill="none" stroke="#25e227" d="M1628.1,-314.553C1660.52,-309.036 1705.31,-299.776 1743,-286 1779.04,-272.826 1817.54,-251.816 1844.16,-236.063"/>
<ellipse fill="none" stroke="#25e227" cx="1624.09" cy="-315.22" rx="4.00001" ry="4.00001"/>
<polygon fill="#25e227" stroke="#25e227" points="1844.48,-235.871 1855.37,-234.591 1848.77,-233.301 1853.06,-230.731 1853.06,-230.731 1853.06,-230.731 1848.77,-233.301 1850.75,-226.871 1844.48,-235.871 1844.48,-235.871"/>
</g>
<!-- Product&#45;&gt;Feature -->
<g id="edge88" class="edge"><title>Product&#45;&gt;Feature</title>
<path fill="none" stroke="#af63e4" d="M1629.03,-315.891C1672.08,-310.453 1738.6,-300.604 1795,-286 1841.13,-274.054 1850.99,-265.663 1896,-250 1919.49,-241.824 1925.55,-240.313 1949,-232 1951.55,-231.098 1954.17,-230.158 1956.8,-229.204"/>
<ellipse fill="none" stroke="#af63e4" cx="1624.98" cy="-316.394" rx="4.00001" ry="4.00001"/>
<polygon fill="#af63e4" stroke="#af63e4" points="1956.94,-229.155 1967.88,-229.956 1961.64,-227.442 1966.33,-225.728 1966.33,-225.728 1966.33,-225.728 1961.64,-227.442 1964.79,-221.501 1956.94,-229.155 1956.94,-229.155"/>
</g>
<!-- Product&#45;&gt;Product -->
<g id="edge81" class="edge"><title>Product&#45;&gt;Product</title>
<path fill="none" stroke="#62d02b" d="M1631.68,-324.809C1636.74,-324.265 1640,-323.329 1640,-322 1640,-320.671 1636.74,-319.735 1631.68,-319.191"/>
<polygon fill="#62d02b" stroke="#62d02b" points="1631.67,-324.809 1621.44,-320.861 1626.68,-325.082 1621.69,-325.354 1621.69,-325.354 1621.69,-325.354 1626.68,-325.082 1621.93,-329.848 1631.67,-324.809 1631.67,-324.809"/>
<polygon fill="#62d02b" stroke="#62d02b" points="1631.67,-319.191 1621.93,-314.152 1626.68,-318.918 1621.69,-318.646 1621.69,-318.646 1621.69,-318.646 1626.68,-318.918 1621.44,-323.139 1631.67,-319.191 1631.67,-319.191"/>
<text text-anchor="middle" x="1685.5" y="-318.3" font-family="Times,serif" font-size="14.00">related_products</text>
</g>
<!-- Product&#45;&gt;Product -->
<g id="edge83" class="edge"><title>Product&#45;&gt;Product</title>
<path fill="none" stroke="#959c1c" d="M1630.57,-327.88C1674.52,-330.075 1731,-328.115 1731,-322 1731,-315.885 1674.52,-313.925 1630.57,-316.12"/>
<polygon fill="#959c1c" stroke="#959c1c" points="1630.55,-327.879 1620.83,-322.799 1625.56,-327.585 1620.56,-327.291 1620.56,-327.291 1620.56,-327.291 1625.56,-327.585 1620.3,-331.784 1630.55,-327.879 1630.55,-327.879"/>
<polygon fill="#959c1c" stroke="#959c1c" points="1630.55,-316.121 1620.3,-312.216 1625.56,-316.415 1620.56,-316.709 1620.56,-316.709 1620.56,-316.709 1625.56,-316.415 1620.83,-321.201 1630.55,-316.121 1630.55,-316.121"/>
<text text-anchor="middle" x="1797" y="-318.3" font-family="Times,serif" font-size="14.00">recommended_products</text>
</g>
<!-- Product&#45;&gt;Product -->
<g id="edge85" class="edge"><title>Product&#45;&gt;Product</title>
<path fill="none" stroke="#0c6935" d="M1630.47,-328.92C1711.4,-334.854 1863,-332.548 1863,-322 1863,-311.452 1711.4,-309.146 1630.47,-315.08"/>
<polygon fill="#0c6935" stroke="#0c6935" points="1629.98,-328.88 1620.38,-323.585 1625,-328.475 1620.02,-328.07 1620.02,-328.07 1620.02,-328.07 1625,-328.475 1619.65,-332.556 1629.98,-328.88 1629.98,-328.88"/>
<polygon fill="#0c6935" stroke="#0c6935" points="1629.98,-315.12 1619.65,-311.444 1625,-315.525 1620.02,-315.93 1620.02,-315.93 1620.02,-315.93 1625,-315.525 1620.38,-320.415 1629.98,-315.12 1629.98,-315.12"/>
<text text-anchor="middle" x="1885.5" y="-318.3" font-family="Times,serif" font-size="14.00">supplies</text>
</g>
<!-- Productrelation -->
<g id="node33" class="node"><title>Productrelation</title>
<ellipse fill="none" stroke="black" cx="2279" cy="-214" rx="64.4914" ry="18"/>
<text text-anchor="middle" x="2279" y="-210.3" font-family="Times,serif" font-size="14.00">Productrelation</text>
</g>
<!-- Product&#45;&gt;Productrelation -->
<g id="edge82" class="edge"><title>Product&#45;&gt;Productrelation</title>
<path fill="none" stroke="#fe3051" d="M1629.66,-317.115C1692.51,-311.53 1809.13,-300.309 1908,-286 2040.78,-266.783 2073.59,-259.027 2205,-232 2210.33,-230.905 2215.86,-229.721 2221.39,-228.506"/>
<ellipse fill="none" stroke="#fe3051" cx="1625.51" cy="-317.482" rx="4" ry="4"/>
<polygon fill="#fe3051" stroke="#fe3051" points="2221.54,-228.472 2232.28,-230.689 2226.42,-227.384 2231.3,-226.297 2231.3,-226.297 2231.3,-226.297 2226.42,-227.384 2230.32,-221.904 2221.54,-228.472 2221.54,-228.472"/>
</g>
<!-- Recommendation -->
<g id="node34" class="node"><title>Recommendation</title>
<ellipse fill="none" stroke="black" cx="2123" cy="-214" rx="73.1654" ry="18"/>
<text text-anchor="middle" x="2123" y="-210.3" font-family="Times,serif" font-size="14.00">Recommendation</text>
</g>
<!-- Product&#45;&gt;Recommendation -->
<g id="edge84" class="edge"><title>Product&#45;&gt;Recommendation</title>
<path fill="none" stroke="#22c865" d="M1630.69,-320.166C1686.47,-318.021 1782.03,-310.675 1860,-286 1892.6,-275.682 1895.57,-260.836 1928,-250 1976.23,-233.885 1990.98,-241.164 2041,-232 2047.1,-230.882 2053.44,-229.665 2059.78,-228.413"/>
<ellipse fill="none" stroke="#22c865" cx="1626.42" cy="-320.317" rx="4" ry="4"/>
<polygon fill="#22c865" stroke="#22c865" points="2059.89,-228.39 2070.58,-230.837 2064.8,-227.408 2069.7,-226.425 2069.7,-226.425 2069.7,-226.425 2064.8,-227.408 2068.81,-222.013 2059.89,-228.39 2059.89,-228.39"/>
</g>
<!-- Product&#45;&gt;Categorization -->
<g id="edge80" class="edge"><title>Product&#45;&gt;Categorization</title>
<path fill="none" stroke="#85aaef" d="M1630.4,-319.948C1727.87,-317.344 1960.94,-309.05 2155,-286 2291.7,-269.762 2325.18,-259.828 2460,-232 2465.27,-230.913 2470.74,-229.726 2476.2,-228.502"/>
<ellipse fill="none" stroke="#85aaef" cx="1626.22" cy="-320.057" rx="4" ry="4"/>
<polygon fill="#85aaef" stroke="#85aaef" points="2476.24,-228.493 2486.99,-230.659 2481.12,-227.383 2485.99,-226.272 2485.99,-226.272 2485.99,-226.272 2481.12,-227.383 2484.99,-221.884 2476.24,-228.493 2476.24,-228.493"/>
</g>
<!-- Inventory -->
<g id="node36" class="node"><title>Inventory</title>
<ellipse fill="none" stroke="black" cx="2407" cy="-214" rx="44.271" ry="18"/>
<text text-anchor="middle" x="2407" y="-210.3" font-family="Times,serif" font-size="14.00">Inventory</text>
</g>
<!-- Product&#45;&gt;Inventory -->
<g id="edge87" class="edge"><title>Product&#45;&gt;Inventory</title>
<path fill="none" stroke="#c0bbc4" d="M1630.29,-318.616C1710.76,-314.184 1881.56,-303.504 2025,-286 2098.11,-277.079 2280.32,-248.914 2352,-232 2355.88,-231.084 2359.89,-230.04 2363.9,-228.93"/>
<ellipse fill="none" stroke="#c0bbc4" cx="1625.86" cy="-318.858" rx="4" ry="4"/>
<polygon fill="#c0bbc4" stroke="#c0bbc4" points="2364.15,-228.857 2375,-230.395 2368.95,-227.465 2373.75,-226.073 2373.75,-226.073 2373.75,-226.073 2368.95,-227.465 2372.5,-221.751 2364.15,-228.857 2364.15,-228.857"/>
</g>
<!-- Product&#45;&gt;Value -->
<g id="edge79" class="edge"><title>Product&#45;&gt;Value</title>
<path fill="none" stroke="#0497cf" d="M1556.49,-302.243C1534.5,-287.495 1502.71,-266.719 1474,-250 1462.75,-243.448 1450.15,-236.717 1438.95,-230.931"/>
<ellipse fill="none" stroke="#0497cf" cx="1559.95" cy="-304.572" rx="4.00002" ry="4.00002"/>
<polygon fill="#0497cf" stroke="#0497cf" points="1438.82,-230.868 1431.97,-222.31 1434.37,-228.592 1429.92,-226.317 1429.92,-226.317 1429.92,-226.317 1434.37,-228.592 1427.87,-230.323 1438.82,-230.868 1438.82,-230.868"/>
</g>
<!-- Product&#45;&gt;PaperTrail::Version -->
<g id="edge78" class="edge"><title>Product&#45;&gt;PaperTrail::Version</title>
<path fill="none" stroke="#159701" d="M1578.29,-296.127C1564.14,-236.497 1525.88,-87.8269 1489,-54 1475.11,-41.2569 1457.15,-33.0365 1438.93,-27.7637"/>
<ellipse fill="none" stroke="#159701" cx="1579.21" cy="-300.036" rx="4.00001" ry="4.00001"/>
<polygon fill="#159701" stroke="#159701" points="1438.78,-27.7236 1430.24,-20.8432 1433.94,-26.4604 1429.1,-25.1972 1429.1,-25.1972 1429.1,-25.1972 1433.94,-26.4604 1427.96,-29.5513 1438.78,-27.7236 1438.78,-27.7236"/>
<text text-anchor="middle" x="1570" y="-156.3" font-family="Times,serif" font-size="14.00">versions</text>
</g>
<!-- MercatorIcecat::Metadatum -->
<g id="node46" class="node"><title>MercatorIcecat::Metadatum</title>
<ellipse fill="none" stroke="black" cx="1687" cy="-214" rx="110.235" ry="18"/>
<text text-anchor="middle" x="1687" y="-210.3" font-family="Times,serif" font-size="14.00">MercatorIcecat::Metadatum</text>
</g>
<!-- Product&#45;&gt;MercatorIcecat::Metadatum -->
<g id="edge77" class="edge"><title>Product&#45;&gt;MercatorIcecat::Metadatum</title>
<path fill="none" stroke="#0d2165" d="M1604.88,-299.51C1621.79,-282.113 1645.6,-257.606 1663.23,-239.46"/>
<ellipse fill="none" stroke="#0d2165" cx="1601.99" cy="-302.491" rx="4.00002" ry="4.00002"/>
<polygon fill="#0d2165" stroke="#0d2165" points="1663.4,-239.284 1673.6,-235.248 1666.89,-235.698 1670.37,-232.112 1670.37,-232.112 1670.37,-232.112 1666.89,-235.698 1667.15,-228.976 1663.4,-239.284 1663.4,-239.284"/>
<text text-anchor="middle" x="1695" y="-264.3" font-family="Times,serif" font-size="14.00">icecat_metadata</text>
</g>
<!-- Ckeditor::Picture -->
<g id="node30" class="node"><title>Ckeditor::Picture</title>
<ellipse fill="none" stroke="black" cx="3130" cy="-430" rx="71.2405" ry="18"/>
<text text-anchor="middle" x="3130" y="-426.3" font-family="Times,serif" font-size="14.00">Ckeditor::Picture</text>
</g>
<!-- Ckeditor::AttachmentFile -->
<g id="node31" class="node"><title>Ckeditor::AttachmentFile</title>
<ellipse fill="none" stroke="black" cx="3321" cy="-430" rx="101.087" ry="18"/>
<text text-anchor="middle" x="3321" y="-426.3" font-family="Times,serif" font-size="14.00">Ckeditor::AttachmentFile</text>
</g>
<!-- Ckeditor::Asset -->
<g id="node32" class="node"><title>Ckeditor::Asset</title>
<ellipse fill="none" stroke="black" cx="3130" cy="-538" rx="65.4659" ry="18"/>
<text text-anchor="middle" x="3130" y="-534.3" font-family="Times,serif" font-size="14.00">Ckeditor::Asset</text>
</g>
<!-- Ckeditor::Asset&#45;&gt;Ckeditor::Picture -->
<g id="edge90" class="edge"><title>Ckeditor::Asset&#45;&gt;Ckeditor::Picture</title>
<path fill="none" stroke="black" d="M3130,-519.969C3130,-500.306 3130,-468.135 3130,-448.341"/>
</g>
<!-- Ckeditor::Asset&#45;&gt;Ckeditor::AttachmentFile -->
<g id="edge91" class="edge"><title>Ckeditor::Asset&#45;&gt;Ckeditor::AttachmentFile</title>
<path fill="none" stroke="black" d="M3157.77,-521.587C3193.47,-501.777 3255.17,-467.534 3291.62,-447.303"/>
</g>
<!-- Productrelation&#45;&gt;PaperTrail::Version -->
<g id="edge93" class="edge"><title>Productrelation&#45;&gt;PaperTrail::Version</title>
<path fill="none" stroke="#f75900" d="M2243.44,-193.939C2184.34,-162.537 2068.05,-102.001 2024,-88 1917.84,-54.2541 1598.27,-32.4804 1442.4,-23.5794"/>
<ellipse fill="none" stroke="#f75900" cx="2247.17" cy="-195.923" rx="4.00002" ry="4.00002"/>
<polygon fill="#f75900" stroke="#f75900" points="1442.36,-23.5771 1432.63,-18.5189 1437.36,-23.2944 1432.37,-23.0117 1432.37,-23.0117 1432.37,-23.0117 1437.36,-23.2944 1432.12,-27.5046 1442.36,-23.5771 1442.36,-23.5771"/>
<text text-anchor="middle" x="2129" y="-102.3" font-family="Times,serif" font-size="14.00">versions</text>
</g>
<!-- Recommendation&#45;&gt;PaperTrail::Version -->
<g id="edge95" class="edge"><title>Recommendation&#45;&gt;PaperTrail::Version</title>
<path fill="none" stroke="#a15514" d="M2092.99,-192.381C2050.47,-164.202 1969.36,-114.18 1893,-88 1741.77,-36.1477 1554.51,-22.7235 1445.52,-19.5629"/>
<ellipse fill="none" stroke="#a15514" cx="2096.4" cy="-194.656" rx="4.00002" ry="4.00002"/>
<polygon fill="#a15514" stroke="#a15514" points="1445.22,-19.5549 1435.34,-14.7897 1440.22,-19.4215 1435.22,-19.2881 1435.22,-19.2881 1435.22,-19.2881 1440.22,-19.4215 1435.1,-23.7865 1445.22,-19.5549 1445.22,-19.5549"/>
<text text-anchor="middle" x="1997" y="-102.3" font-family="Times,serif" font-size="14.00">versions</text>
</g>
<!-- Categorization&#45;&gt;PaperTrail::Version -->
<g id="edge97" class="edge"><title>Categorization&#45;&gt;PaperTrail::Version</title>
<path fill="none" stroke="#3b484a" d="M2521.35,-188.202C2507.71,-159.496 2481.29,-112.974 2444,-88 2387.2,-49.9601 2361.78,-62.8668 2294,-54 2131.83,-32.7852 1647.63,-23.3315 1445.36,-20.23"/>
<ellipse fill="none" stroke="#3b484a" cx="2523.18" cy="-192.162" rx="4.00002" ry="4.00002"/>
<polygon fill="#3b484a" stroke="#3b484a" points="1445.07,-20.2257 1435.14,-15.5745 1440.07,-20.1499 1435.07,-20.074 1435.07,-20.074 1435.07,-20.074 1440.07,-20.1499 1435,-24.5735 1445.07,-20.2257 1445.07,-20.2257"/>
<text text-anchor="middle" x="2504" y="-102.3" font-family="Times,serif" font-size="14.00">versions</text>
</g>
<!-- Price -->
<g id="node37" class="node"><title>Price</title>
<ellipse fill="none" stroke="black" cx="2571" cy="-106" rx="28.3955" ry="18"/>
<text text-anchor="middle" x="2571" y="-102.3" font-family="Times,serif" font-size="14.00">Price</text>
</g>
<!-- Inventory&#45;&gt;Price -->
<g id="edge101" class="edge"><title>Inventory&#45;&gt;Price</title>
<path fill="none" stroke="#5b68f5" d="M2436.59,-193.875C2466.75,-174.379 2513.2,-144.355 2542.84,-125.2"/>
<ellipse fill="none" stroke="#5b68f5" cx="2433.16" cy="-196.09" rx="4.00002" ry="4.00002"/>
<polygon fill="#5b68f5" stroke="#5b68f5" points="2543.06,-125.057 2553.9,-123.408 2547.26,-122.342 2551.46,-119.628 2551.46,-119.628 2551.46,-119.628 2547.26,-122.342 2549.02,-115.849 2543.06,-125.057 2543.06,-125.057"/>
</g>
<!-- Inventory&#45;&gt;PaperTrail::Version -->
<g id="edge100" class="edge"><title>Inventory&#45;&gt;PaperTrail::Version</title>
<path fill="none" stroke="#2a626e" d="M2406.99,-187.921C2405.48,-158.858 2398.16,-111.907 2368,-88 2296.63,-31.4195 1680.24,-21.2244 1445.37,-19.3961"/>
<ellipse fill="none" stroke="#2a626e" cx="2407.13" cy="-191.968" rx="4" ry="4"/>
<polygon fill="#2a626e" stroke="#2a626e" points="1445.15,-19.3946 1435.19,-14.8201 1440.15,-19.3573 1435.15,-19.32 1435.15,-19.32 1435.15,-19.32 1440.15,-19.3573 1435.12,-23.8199 1445.15,-19.3946 1445.15,-19.3946"/>
<text text-anchor="middle" x="2417" y="-102.3" font-family="Times,serif" font-size="14.00">versions</text>
</g>
<!-- MercatorMesonic::Price -->
<g id="node47" class="node"><title>MercatorMesonic::Price</title>
<ellipse fill="none" stroke="black" cx="2263" cy="-106" rx="96.2631" ry="18"/>
<text text-anchor="middle" x="2263" y="-102.3" font-family="Times,serif" font-size="14.00">MercatorMesonic::Price</text>
</g>
<!-- Inventory&#45;&gt;MercatorMesonic::Price -->
<g id="edge99" class="edge"><title>Inventory&#45;&gt;MercatorMesonic::Price</title>
<path fill="none" stroke="#64d841" d="M2364.83,-200.001C2334.39,-190.55 2298.39,-179.208 2297,-178 2283.76,-166.482 2275.25,-148.662 2270.06,-133.756"/>
<ellipse fill="none" stroke="#64d841" cx="2369.01" cy="-201.296" rx="4.00001" ry="4.00001"/>
<polygon fill="#64d841" stroke="#64d841" points="2269.99,-133.549 2271.26,-122.657 2268.48,-128.783 2266.97,-124.016 2266.97,-124.016 2266.97,-124.016 2268.48,-128.783 2262.68,-125.375 2269.99,-133.549 2269.99,-133.549"/>
<text text-anchor="middle" x="2339.5" y="-156.3" font-family="Times,serif" font-size="14.00">mesonic_prices</text>
</g>
<!-- Price&#45;&gt;PaperTrail::Version -->
<g id="edge103" class="edge"><title>Price&#45;&gt;PaperTrail::Version</title>
<path fill="none" stroke="#63a4ba" d="M2548.64,-85.8319C2533.68,-74.2596 2512.95,-60.5268 2492,-54 2393.43,-23.2924 1697.32,-19.3981 1445.57,-19.0018"/>
<ellipse fill="none" stroke="#63a4ba" cx="2551.96" cy="-88.473" rx="4.00002" ry="4.00002"/>
<polygon fill="#63a4ba" stroke="#63a4ba" points="1445.36,-19.0016 1435.37,-14.4873 1440.36,-18.9944 1435.36,-18.9873 1435.36,-18.9873 1435.36,-18.9873 1440.36,-18.9944 1435.36,-23.4873 1445.36,-19.0016 1445.36,-19.0016"/>
<text text-anchor="middle" x="2548" y="-58.3" font-family="Times,serif" font-size="14.00">versions</text>
</g>
<!-- Link&#45;&gt;PaperTrail::Version -->
<g id="edge105" class="edge"><title>Link&#45;&gt;PaperTrail::Version</title>
<path fill="none" stroke="#7872dc" d="M589.219,-295.664C585.456,-260.908 579.085,-200.222 578,-178 577.22,-162.019 571.203,-156.484 578,-142 608.745,-76.4875 644.844,-71.7573 715,-54 816.366,-28.343 1113.81,-21.494 1264.82,-19.6657"/>
<ellipse fill="none" stroke="#7872dc" cx="589.682" cy="-299.925" rx="4" ry="4"/>
<polygon fill="#7872dc" stroke="#7872dc" points="1264.99,-19.6638 1275.05,-24.0472 1269.99,-19.6056 1274.99,-19.5475 1274.99,-19.5475 1274.99,-19.5475 1269.99,-19.6056 1274.94,-15.0478 1264.99,-19.6638 1264.99,-19.6638"/>
<text text-anchor="middle" x="601" y="-156.3" font-family="Times,serif" font-size="14.00">versions</text>
</g>
<!-- Value&#45;&gt;PaperTrail::Version -->
<g id="edge107" class="edge"><title>Value&#45;&gt;PaperTrail::Version</title>
<path fill="none" stroke="#e30a3b" d="M1402.17,-187.819C1395.83,-156.206 1383.76,-100.483 1369,-54 1368.13,-51.2516 1367.14,-48.4125 1366.1,-45.5953"/>
<ellipse fill="none" stroke="#e30a3b" cx="1403.02" cy="-192.145" rx="4.00001" ry="4.00001"/>
<polygon fill="#e30a3b" stroke="#e30a3b" points="1366.1,-45.5887 1366.68,-34.6382 1364.29,-40.9268 1362.49,-36.2649 1362.49,-36.2649 1362.49,-36.2649 1364.29,-40.9268 1358.29,-37.8917 1366.1,-45.5887 1366.1,-45.5887"/>
<text text-anchor="middle" x="1412" y="-102.3" font-family="Times,serif" font-size="14.00">versions</text>
</g>
<!-- ShippingCost -->
<g id="node40" class="node"><title>ShippingCost</title>
<ellipse fill="none" stroke="black" cx="3053" cy="-268" rx="58.2422" ry="18"/>
<text text-anchor="middle" x="3053" y="-264.3" font-family="Times,serif" font-size="14.00">ShippingCost</text>
</g>
<!-- ShippingCost&#45;&gt;PaperTrail::Version -->
<g id="edge109" class="edge"><title>ShippingCost&#45;&gt;PaperTrail::Version</title>
<path fill="none" stroke="#3693c9" d="M3054.71,-241.609C3056.23,-195.595 3051.91,-99.033 2994,-54 2963.23,-30.0681 1783.94,-21.4608 1445.15,-19.479"/>
<ellipse fill="none" stroke="#3693c9" cx="3054.52" cy="-245.852" rx="4" ry="4"/>
<polygon fill="#3693c9" stroke="#3693c9" points="1445.13,-19.479 1435.16,-14.921 1440.13,-19.45 1435.13,-19.4209 1435.13,-19.4209 1435.13,-19.4209 1440.13,-19.45 1435.11,-23.9209 1445.13,-19.479 1445.13,-19.479"/>
<text text-anchor="middle" x="3075" y="-156.3" font-family="Times,serif" font-size="14.00">versions</text>
</g>
<!-- Order&#45;&gt;Lineitem -->
<g id="edge112" class="edge"><title>Order&#45;&gt;Lineitem</title>
<path fill="none" stroke="#282176" d="M765.528,-299.878C781.883,-282.187 805.21,-256.957 822.177,-238.604"/>
<ellipse fill="none" stroke="#282176" cx="762.756" cy="-302.876" rx="4.00002" ry="4.00002"/>
<polygon fill="#282176" stroke="#282176" points="822.232,-238.545 832.325,-234.257 825.627,-234.873 829.021,-231.202 829.021,-231.202 829.021,-231.202 825.627,-234.873 825.717,-228.147 822.232,-238.545 822.232,-238.545"/>
</g>
<!-- Order&#45;&gt;PaperTrail::Version -->
<g id="edge111" class="edge"><title>Order&#45;&gt;PaperTrail::Version</title>
<path fill="none" stroke="#581aac" d="M724.763,-299.743C709.577,-282.949 690.399,-258.066 682,-232 677.093,-216.771 678.8,-211.677 682,-196 699.536,-110.076 736.966,-84.9993 819,-54 898.014,-24.1419 1133.6,-19.0149 1264.61,-18.5692"/>
<ellipse fill="none" stroke="#581aac" cx="727.842" cy="-303.057" rx="4.00002" ry="4.00002"/>
<polygon fill="#581aac" stroke="#581aac" points="1264.63,-18.5693 1274.64,-23.0436 1269.63,-18.5564 1274.63,-18.5436 1274.63,-18.5436 1274.63,-18.5436 1269.63,-18.5564 1274.62,-14.0436 1264.63,-18.5693 1264.63,-18.5693"/>
<text text-anchor="middle" x="722" y="-156.3" font-family="Times,serif" font-size="14.00">versions</text>
</g>
<!-- ActiveRecord::Base -->
<g id="node43" class="node"><title>ActiveRecord::Base</title>
<ellipse fill="none" stroke="black" cx="1376" cy="-633" rx="81.3646" ry="18"/>
<text text-anchor="middle" x="1376" y="-629.3" font-family="Times,serif" font-size="14.00">ActiveRecord::Base</text>
</g>
<!-- ActiveRecord::Base&#45;&gt;Suggestion -->
<g id="edge2" class="edge"><title>ActiveRecord::Base&#45;&gt;Suggestion</title>
<path fill="none" stroke="black" d="M1346.16,-616.247C1328.82,-607.942 1306.26,-598.554 1285,-594 1107.06,-555.885 637.016,-620.878 467,-556 385.807,-525.017 345.115,-524.562 304,-448 283.387,-409.614 321.915,-363.022 346.26,-339.016"/>
</g>
<!-- ActiveRecord::Base&#45;&gt;Gtc -->
<g id="edge4" class="edge"><title>ActiveRecord::Base&#45;&gt;Gtc</title>
<path fill="none" stroke="black" d="M1346.18,-616.155C1328.85,-607.821 1306.29,-598.434 1285,-594 1220.38,-580.54 155.995,-605.607 97,-576 65.6464,-560.265 44.318,-523.154 34.0497,-501.496"/>
</g>
<!-- ActiveRecord::Base&#45;&gt;PropertyGroup -->
<g id="edge9" class="edge"><title>ActiveRecord::Base&#45;&gt;PropertyGroup</title>
<path fill="none" stroke="black" d="M1387.37,-614.942C1398.56,-598.162 1415.54,-572.692 1426.7,-555.949"/>
</g>
<!-- ActiveRecord::Base&#45;&gt;Address -->
<g id="edge11" class="edge"><title>ActiveRecord::Base&#45;&gt;Address</title>
<path fill="none" stroke="black" d="M1346.18,-616.176C1328.84,-607.849 1306.28,-598.462 1285,-594 1229.86,-582.439 316.986,-608.554 271,-576 228.904,-546.2 219.577,-479.537 217.545,-448.069"/>
</g>
<!-- ActiveRecord::Base&#45;&gt;Offer -->
<g id="edge14" class="edge"><title>ActiveRecord::Base&#45;&gt;Offer</title>
<path fill="none" stroke="black" d="M1345.73,-616.153C1328.44,-607.93 1306.06,-598.652 1285,-594 1185.11,-571.941 922.766,-606.12 825,-576 719.509,-543.5 770.738,-447.408 706,-358 700.238,-350.042 692.396,-342.569 685.255,-336.589"/>
</g>
<!-- ActiveRecord::Base&#45;&gt;PageContentElementAssignment -->
<g id="edge16" class="edge"><title>ActiveRecord::Base&#45;&gt;PageContentElementAssignment</title>
<path fill="none" stroke="black" d="M1339.84,-616.881C1276.93,-590.578 1154,-539.155 1154,-539 1154,-539 1154,-539 1154,-321 1154,-289.714 1153.56,-253.236 1153.26,-232.258"/>
</g>
<!-- ActiveRecord::Base&#45;&gt;Supplyrelation -->
<g id="edge18" class="edge"><title>ActiveRecord::Base&#45;&gt;Supplyrelation</title>
<path fill="none" stroke="black" d="M1453.92,-627.825C1615.47,-618.122 1972,-590.839 1972,-539 1972,-539 1972,-539 1972,-321 1972,-280.416 1932.95,-248.113 1905.19,-230.275"/>
</g>
<!-- ActiveRecord::Base&#45;&gt;Download -->
<g id="edge22" class="edge"><title>ActiveRecord::Base&#45;&gt;Download</title>
<path fill="none" stroke="black" d="M1346.18,-616.175C1328.84,-607.848 1306.28,-598.461 1285,-594 1174.17,-570.769 375.532,-604.74 266,-576 183.869,-554.45 137.359,-491.19 168,-412 179.987,-381.019 208.331,-354.19 228.088,-338.306"/>
</g>
<!-- ActiveRecord::Base&#45;&gt;Toner -->
<g id="edge24" class="edge"><title>ActiveRecord::Base&#45;&gt;Toner</title>
<path fill="none" stroke="black" d="M1457.14,-631.41C1740.38,-628.991 2670.64,-617.877 2718,-576 2770.73,-529.37 2761,-433.286 2754.39,-394.152"/>
</g>
<!-- ActiveRecord::Base&#45;&gt;Conversation -->
<g id="edge33" class="edge"><title>ActiveRecord::Base&#45;&gt;Conversation</title>
<path fill="none" stroke="black" d="M1346.16,-616.259C1328.82,-607.958 1306.26,-598.57 1285,-594 1121.41,-558.832 688.218,-618.488 533,-556 471.047,-531.059 412.72,-475.337 386.105,-447.494"/>
</g>
<!-- ActiveRecord::Base&#45;&gt;Message -->
<g id="edge35" class="edge"><title>ActiveRecord::Base&#45;&gt;Message</title>
<path fill="none" stroke="black" d="M1346.18,-616.174C1328.84,-607.846 1306.28,-598.459 1285,-594 1173.19,-570.572 370.3,-590.625 257,-576 219.796,-571.198 203.012,-580.951 175,-556 112.269,-500.124 128.341,-383.814 137.124,-340.101"/>
</g>
<!-- ActiveRecord::Base&#45;&gt;User -->
<g id="edge42" class="edge"><title>ActiveRecord::Base&#45;&gt;User</title>
<path fill="none" stroke="black" d="M1345.74,-616.092C1328.46,-607.849 1306.08,-598.572 1285,-594 1161.15,-567.14 839.787,-598.105 715,-576 682.939,-570.321 647.499,-557.423 625.245,-548.465"/>
</g>
<!-- ActiveRecord::Base&#45;&gt;BillingAddress -->
<g id="edge44" class="edge"><title>ActiveRecord::Base&#45;&gt;BillingAddress</title>
<path fill="none" stroke="black" d="M1345.74,-616.086C1328.46,-607.842 1306.08,-598.565 1285,-594 1206.92,-577.095 631.688,-602.88 567,-556 531.186,-530.045 517.852,-475.819 513.238,-448.105"/>
</g>
<!-- ActiveRecord::Base&#45;&gt;Contract -->
<g id="edge46" class="edge"><title>ActiveRecord::Base&#45;&gt;Contract</title>
<path fill="none" stroke="black" d="M1456.51,-630.776C1729.57,-626.335 2610.25,-609.541 2733,-576 2766.57,-566.828 2802,-573.797 2802,-539 2802,-539 2802,-539 2802,-375 2802,-343.693 2803.76,-307.222 2804.95,-286.251"/>
</g>
<!-- ActiveRecord::Base&#45;&gt;Category -->
<g id="edge50" class="edge"><title>ActiveRecord::Base&#45;&gt;Category</title>
<path fill="none" stroke="black" d="M1455.95,-629.882C1668.58,-623.879 2237.3,-605.261 2317,-576 2393.72,-547.832 2465.54,-478.445 2495.42,-446.977"/>
</g>
<!-- ActiveRecord::Base&#45;&gt;Webpage -->
<g id="edge54" class="edge"><title>ActiveRecord::Base&#45;&gt;Webpage</title>
<path fill="none" stroke="black" d="M1344.32,-616.263C1327.16,-608.388 1305.35,-599.404 1285,-594 1253.62,-585.667 1165.71,-595.828 1140,-576 1098.99,-544.377 1086.89,-479.226 1083.39,-448.181"/>
</g>
<!-- ActiveRecord::Base&#45;&gt;Feedback -->
<g id="edge56" class="edge"><title>ActiveRecord::Base&#45;&gt;Feedback</title>
<path fill="none" stroke="black" d="M1457.29,-631.53C1713.34,-629.602 2500.92,-620.143 2752,-576 2802.8,-567.068 2862,-590.58 2862,-539 2862,-539 2862,-539 2862,-267 2862,-235.715 2862,-199.237 2862,-178.258"/>
</g>
<!-- ActiveRecord::Base&#45;&gt;Feature -->
<g id="edge58" class="edge"><title>ActiveRecord::Base&#45;&gt;Feature</title>
<path fill="none" stroke="black" d="M1454.7,-628.534C1624.49,-620.002 2010,-594.519 2010,-539 2010,-539 2010,-539 2010,-321 2010,-289.404 2003.39,-253.027 1998.94,-232.153"/>
</g>
<!-- ActiveRecord::Base&#45;&gt;Offeritem -->
<g id="edge60" class="edge"><title>ActiveRecord::Base&#45;&gt;Offeritem</title>
<path fill="none" stroke="black" d="M1345.71,-616.221C1328.42,-608.019 1306.05,-598.74 1285,-594 1202.74,-575.475 986.73,-600.333 906,-576 875.276,-566.739 844,-571.089 844,-539 844,-539 844,-539 844,-321 844,-276.809 797.369,-244.768 765.674,-228.095"/>
</g>
<!-- ActiveRecord::Base&#45;&gt;Constant -->
<g id="edge62" class="edge"><title>ActiveRecord::Base&#45;&gt;Constant</title>
<path fill="none" stroke="black" d="M1456.95,-631.294C1760.45,-628.348 2816.44,-615.306 2876,-576 2901.23,-559.349 2912,-523.645 2916.33,-502.244"/>
</g>
<!-- ActiveRecord::Base&#45;&gt;Country -->
<g id="edge64" class="edge"><title>ActiveRecord::Base&#45;&gt;Country</title>
<path fill="none" stroke="black" d="M1457.03,-631.803C1751.62,-630.704 2755.6,-623.478 2891,-576 2934.01,-560.918 2944.35,-544.023 2962,-502 2977.14,-465.961 2977.95,-419.207 2977.07,-394.342"/>
</g>
<!-- ActiveRecord::Base&#45;&gt;PageTemplate -->
<g id="edge67" class="edge"><title>ActiveRecord::Base&#45;&gt;PageTemplate</title>
<path fill="none" stroke="black" d="M1344.79,-616.247C1327.58,-608.264 1305.59,-599.187 1285,-594 1205.75,-574.034 1180.64,-598.236 1102,-576 1084.49,-571.049 1066.11,-562.213 1051.81,-554.418"/>
</g>
<!-- ActiveRecord::Base&#45;&gt;Property -->
<g id="edge71" class="edge"><title>ActiveRecord::Base&#45;&gt;Property</title>
<path fill="none" stroke="black" d="M1424.32,-618.401C1454.75,-607.058 1491.63,-587.546 1510,-556 1530.11,-521.479 1512.02,-472.864 1499.89,-447.642"/>
</g>
<!-- ActiveRecord::Base&#45;&gt;ContentElement -->
<g id="edge74" class="edge"><title>ActiveRecord::Base&#45;&gt;ContentElement</title>
<path fill="none" stroke="black" d="M1360.01,-614.965C1350.79,-604.404 1339.56,-590.184 1332,-576 1287.8,-493.081 1262.06,-382.119 1253.36,-340.095"/>
</g>
<!-- ActiveRecord::Base&#45;&gt;Lineitem -->
<g id="edge76" class="edge"><title>ActiveRecord::Base&#45;&gt;Lineitem</title>
<path fill="none" stroke="black" d="M1344.8,-616.213C1327.59,-608.221 1305.6,-599.145 1285,-594 1197.31,-572.097 882,-629.386 882,-539 882,-539 882,-539 882,-321 882,-287.766 865.243,-251.927 853.984,-231.598"/>
</g>
<!-- ActiveRecord::Base&#45;&gt;Product -->
<g id="edge89" class="edge"><title>ActiveRecord::Base&#45;&gt;Product</title>
<path fill="none" stroke="black" d="M1432.74,-619.964C1467.18,-609.388 1508.37,-590.143 1529,-556 1568.32,-490.921 1571.61,-469.02 1584,-394 1587.01,-375.757 1586.49,-354.517 1585.55,-340.055"/>
</g>
<!-- ActiveRecord::Base&#45;&gt;Ckeditor::Asset -->
<g id="edge92" class="edge"><title>ActiveRecord::Base&#45;&gt;Ckeditor::Asset</title>
<path fill="none" stroke="black" d="M1456.77,-631.069C1769.29,-627.225 2889.5,-611.107 3045,-576 3064.94,-571.499 3086.01,-562.357 3102.19,-554.288"/>
</g>
<!-- ActiveRecord::Base&#45;&gt;Productrelation -->
<g id="edge94" class="edge"><title>ActiveRecord::Base&#45;&gt;Productrelation</title>
<path fill="none" stroke="black" d="M1456.91,-631.335C1665.99,-628.547 2208,-614.079 2208,-539 2208,-539 2208,-539 2208,-321 2208,-284.232 2237.85,-250.577 2258.84,-231.459"/>
</g>
<!-- ActiveRecord::Base&#45;&gt;Recommendation -->
<g id="edge96" class="edge"><title>ActiveRecord::Base&#45;&gt;Recommendation</title>
<path fill="none" stroke="black" d="M1455.67,-629.298C1635.23,-622.146 2056,-598.987 2056,-539 2056,-539 2056,-539 2056,-321 2056,-284.861 2084.17,-251.02 2103.98,-231.692"/>
</g>
<!-- ActiveRecord::Base&#45;&gt;Categorization -->
<g id="edge98" class="edge"><title>ActiveRecord::Base&#45;&gt;Categorization</title>
<path fill="none" stroke="black" d="M1456.16,-630.141C1729.04,-623.293 2605,-596.808 2605,-539 2605,-539 2605,-539 2605,-321 2605,-283.908 2574.31,-250.35 2552.72,-231.338"/>
</g>
<!-- ActiveRecord::Base&#45;&gt;Inventory -->
<g id="edge102" class="edge"><title>ActiveRecord::Base&#45;&gt;Inventory</title>
<path fill="none" stroke="black" d="M1457.45,-632.294C1683.66,-632.038 2303,-623.613 2303,-539 2303,-539 2303,-539 2303,-321 2303,-277.301 2348.59,-245 2379.4,-228.16"/>
</g>
<!-- ActiveRecord::Base&#45;&gt;Price -->
<g id="edge104" class="edge"><title>ActiveRecord::Base&#45;&gt;Price</title>
<path fill="none" stroke="black" d="M1456.58,-630.596C1744.3,-625.057 2704,-601.872 2704,-539 2704,-539 2704,-539 2704,-267 2704,-197.285 2628.41,-141.747 2591.2,-118.634"/>
</g>
<!-- ActiveRecord::Base&#45;&gt;Link -->
<g id="edge106" class="edge"><title>ActiveRecord::Base&#45;&gt;Link</title>
<path fill="none" stroke="black" d="M1345.73,-616.148C1328.44,-607.923 1306.07,-598.645 1285,-594 1169.91,-568.624 850.734,-626.115 756,-556 674.291,-495.525 618.084,-381.999 599.089,-339.564"/>
</g>
<!-- ActiveRecord::Base&#45;&gt;Value -->
<g id="edge108" class="edge"><title>ActiveRecord::Base&#45;&gt;Value</title>
<path fill="none" stroke="black" d="M1372.8,-614.872C1370.11,-599.518 1366.46,-576.345 1365,-556 1363.85,-540.041 1364.26,-535.983 1365,-520 1370.11,-409.474 1394.42,-278.273 1403.53,-232.097"/>
</g>
<!-- ActiveRecord::Base&#45;&gt;ShippingCost -->
<g id="edge110" class="edge"><title>ActiveRecord::Base&#45;&gt;ShippingCost</title>
<path fill="none" stroke="black" d="M1456.94,-631.735C1789.22,-630.124 3031,-618.769 3031,-539 3031,-539 3031,-539 3031,-375 3031,-343.049 3040.7,-306.789 3047.22,-286.033"/>
</g>
<!-- ActiveRecord::Base&#45;&gt;Order -->
<g id="edge113" class="edge"><title>ActiveRecord::Base&#45;&gt;Order</title>
<path fill="none" stroke="black" d="M1345.73,-616.157C1328.44,-607.934 1306.06,-598.656 1285,-594 1235.6,-583.079 868.658,-608.64 830,-576 754.339,-512.118 832.963,-444.07 784,-358 779.299,-349.736 771.976,-342.315 765.008,-336.456"/>
</g>
<!-- Hobo::Model::Guest -->
<g id="node44" class="node"><title>Hobo::Model::Guest</title>
<ellipse fill="none" stroke="black" cx="3241" cy="-633" rx="83.2649" ry="18"/>
<text text-anchor="middle" x="3241" y="-629.3" font-family="Times,serif" font-size="14.00">Hobo::Model::Guest</text>
</g>
<!-- Hobo::Model::Guest&#45;&gt;Guest -->
<g id="edge19" class="edge"><title>Hobo::Model::Guest&#45;&gt;Guest</title>
<path fill="none" stroke="black" d="M3241,-614.942C3241,-598.267 3241,-573.01 3241,-556.264"/>
</g>
<!-- Object -->
<g id="node45" class="node"><title>Object</title>
<ellipse fill="none" stroke="black" cx="3377" cy="-633" rx="34.1708" ry="18"/>
<text text-anchor="middle" x="3377" y="-629.3" font-family="Times,serif" font-size="14.00">Object</text>
</g>
<!-- Object&#45;&gt;JobLogger -->
<g id="edge20" class="edge"><title>Object&#45;&gt;JobLogger</title>
<path fill="none" stroke="black" d="M3377,-614.942C3377,-598.267 3377,-573.01 3377,-556.264"/>
</g>
</g>
</svg>
